<svg xmlns="http://www.w3.org/2000/svg" class="ill" preserveAspectRatio="xMidYMid slice" viewBox="0 0 360 240"><defs><radialGradient id="guangxiao-glow1" cx="258" cy="66" r="190" gradientUnits="userSpaceOnUse"><stop offset="0" stop-color="#fff3cc" stop-opacity=".3"/><stop offset=".4" stop-color="#fff3cc" stop-opacity=".1"/><stop offset="1" stop-color="#fff3cc" stop-opacity="0"/></radialGradient><radialGradient id="guangxiao-glow2" cx="258" cy="66" r="34" gradientUnits="userSpaceOnUse"><stop offset="0" stop-color="#fffaea" stop-opacity=".6"/><stop offset=".4" stop-color="#fffaea" stop-opacity=".2"/><stop offset="1" stop-color="#fffaea" stop-opacity="0"/></radialGradient><radialGradient id="guangxiao-glow4" cx="236" cy="84" r="8" gradientUnits="userSpaceOnUse"><stop offset="0" stop-color="#fff2c0" stop-opacity=".8"/><stop offset=".4" stop-color="#fff2c0" stop-opacity=".3"/><stop offset="1" stop-color="#fff2c0" stop-opacity="0"/></radialGradient><radialGradient id="guangxiao-glow5" cx="213.7" cy="190" r="16" gradientUnits="userSpaceOnUse"><stop offset="0" stop-color="#ffdf9c" stop-opacity=".8"/><stop offset=".4" stop-color="#ffdf9c" stop-opacity=".3"/><stop offset="1" stop-color="#ffdf9c" stop-opacity="0"/></radialGradient><radialGradient id="guangxiao-glow6" cx="236" cy="190" r="16" gradientUnits="userSpaceOnUse"><stop offset="0" stop-color="#ffdf9c" stop-opacity=".8"/><stop offset=".4" stop-color="#ffdf9c" stop-opacity=".3"/><stop offset="1" stop-color="#ffdf9c" stop-opacity="0"/></radialGradient><radialGradient id="guangxiao-glow7" cx="258.3" cy="190" r="16" gradientUnits="userSpaceOnUse"><stop offset="0" stop-color="#ffdf9c" stop-opacity=".8"/><stop offset=".4" stop-color="#ffdf9c" stop-opacity=".3"/><stop offset="1" stop-color="#ffdf9c" stop-opacity="0"/></radialGradient><radialGradient id="guangxiao-glow8" cx="124" cy="193" r="7" gradientUnits="userSpaceOnUse"><stop offset="0" stop-color="#ffcf8c" stop-opacity=".5"/><stop offset=".4" stop-color="#ffcf8c" stop-opacity=".2"/><stop offset="1" stop-color="#ffcf8c" stop-opacity="0"/></radialGradient><radialGradient id="guangxiao-glow9" cx="348" cy="193" r="7" gradientUnits="userSpaceOnUse"><stop offset="0" stop-color="#ffcf8c" stop-opacity=".5"/><stop offset=".4" stop-color="#ffcf8c" stop-opacity=".2"/><stop offset="1" stop-color="#ffcf8c" stop-opacity="0"/></radialGradient><radialGradient id="guangxiao-glow10" cx="187" cy="150" r="9" gradientUnits="userSpaceOnUse"><stop offset="0" stop-color="#ff9a4a" stop-opacity=".5"/><stop offset=".4" stop-color="#ff9a4a" stop-opacity=".2"/><stop offset="1" stop-color="#ff9a4a" stop-opacity="0"/></radialGradient><radialGradient id="guangxiao-glow11" cx="285" cy="150" r="9" gradientUnits="userSpaceOnUse"><stop offset="0" stop-color="#ff9a4a" stop-opacity=".5"/><stop offset=".4" stop-color="#ff9a4a" stop-opacity=".2"/><stop offset="1" stop-color="#ff9a4a" stop-opacity="0"/></radialGradient><radialGradient id="guangxiao-glow12" cx="66" cy="190" r="90" gradientUnits="userSpaceOnUse"><stop offset="0" stop-color="#4a3a20" stop-opacity=".2"/><stop offset=".4" stop-color="#4a3a20" stop-opacity=".1"/><stop offset="1" stop-color="#4a3a20" stop-opacity="0"/></radialGradient><radialGradient id="guangxiao-tsh" cx=".5" cy=".5" r=".5"><stop offset="0" stop-color="#3a2e18" stop-opacity=".4"/><stop offset="1" stop-color="#3a2e18" stop-opacity="0"/></radialGradient><radialGradient id="guangxiao-glow15" cx="172" cy="204" r="13" gradientUnits="userSpaceOnUse"><stop offset="0" stop-color="#ffb26e" stop-opacity=".6"/><stop offset=".4" stop-color="#ffb26e" stop-opacity=".2"/><stop offset="1" stop-color="#ffb26e" stop-opacity="0"/></radialGradient><radialGradient id="guangxiao-vig" cx=".5" cy=".5" r=".8"><stop offset=".6" stop-opacity="0"/><stop offset="1" stop-opacity=".3"/></radialGradient><linearGradient id="guangxiao-sky" x1="0" x2="0" y1="0" y2="208" gradientUnits="userSpaceOnUse"><stop offset="0" stop-color="#adbcc0"/><stop offset=".4" stop-color="#cdcdb6"/><stop offset=".7" stop-color="#eeddae"/><stop offset="1" stop-color="#f6e6bc"/></linearGradient><linearGradient id="guangxiao-hz" x1="0" x2="0" y1="0" y2="1"><stop offset="0" stop-color="#eeddae" stop-opacity=".5"/><stop offset="1" stop-color="#eeddae" stop-opacity="0"/></linearGradient><linearGradient id="guangxiao-gr" x1="0" x2="0" y1="208" y2="240" gradientUnits="userSpaceOnUse"><stop offset="0" stop-color="#e2cf9e"/><stop offset="1" stop-color="#c2a876"/></linearGradient><filter id="guangxiao-sm" width="200%" height="200%" x="-50%" y="-50%"><feGaussianBlur stdDeviation="1.8"/></filter><filter id="guangxiao-gr" width="100%" height="100%" x="0" y="0"><feTurbulence baseFrequency=".8" numOctaves="2" seed="3" stitchTiles="stitch" type="fractalNoise"/><feColorMatrix values="0 0 0 0 .5 0 0 0 0 .5 0 0 0 0 .5 0 0 0 1.6 -.55"/></filter></defs><path fill="url(#guangxiao-sky)" d="M0 0h360v208H0z"/><circle cx="258" cy="66" r="190" fill="url(#guangxiao-glow1)"/><circle cx="258" cy="66" r="34" fill="url(#guangxiao-glow2)"/><path fill="#fff3d6" d="M140 56q14-5 42-4 35-3 63-1 28 .5 35 5Z" opacity=".4"/><path fill="#eee6c8" d="M-10 74q11-4 33-3.2 27.5-2.4 49.5-.8 22 .4 27.5 4Z" opacity=".3"/><path fill="#fff3cc" d="M258 66 118 220h24Zm0 0-40 154h28Zm0 0 70 154h22Z" opacity=".2"/><path fill="#cfc4a4" d="M0 168h360v40H0Z" opacity=".8"/><path fill="#b8ac8c" d="M0 168h360v3H0Z" opacity=".8"/><path fill="#b7ab86" d="m5 168 25-12 25 12Z" opacity=".8"/><path fill="#c7bb96" d="M7 158h46v10H7Z" opacity=".7"/><path fill="#b7ab86" d="m306 168 24-11 24 11Z" opacity=".8"/><path fill="#c7bb96" d="M308 159h44v9h-44Z" opacity=".7"/><path fill="#b7ab86" d="m81 168 19-9 19 9Z" opacity=".8"/><path fill="#c7bb96" d="M83 161h34v7H83Z" opacity=".7"/><path fill="#a99f78" d="M150 168a8.9 7.1 0 0 1 17.7 0 7.9 6.9 0 0 1 15.9 0 8.9 7.2 0 0 1 17.9 0 8.5 9.1 0 0 1 17 0 8.4 10.1 0 0 1 16.9 0 6 5.6 0 0 1 11.9 0 7.8 7.1 0 0 1 15.7 0v40H150Z" opacity=".6"/><path fill="url(#guangxiao-hz)" d="M258 120h90v50h-90z"/><path fill="#d9cdac" d="M297 176.3h5.3V188H297Zm1.7-11.7h4.3v11.7h-4.3Zm1.7-11.7h3.3v11.7h-3.3Zm1.7-11.7h2.3v11.7h-2.3Z"/><path fill="#7c775a" d="M295.8 175.1h20.3v1.7h-20.3Zm1.7-11.7h17v1.7h-17Zm1.7-11.7h13.6v1.7h-13.6Zm1.7-11.7h10.2v1.7h-10.2Z"/><path fill="#7c775a" d="M305.2 135h1.6v6.2h-1.6Z"/><path fill="#9c9468" d="m195.5 132-5.8 14.4a242 242 0 0 1-40.4 14.4q-5.8.7-9.3-3.9 4.6 7.9 11.6 10.5c15 2.6 26.6 2.6 84.4 2.6s69.4 0 84.4-2.6q7-2.6 11.6-10.5-3.5 4.6-9.3 3.9a242 242 0 0 1-40.4-14.4l-5.8-14.4Z"/><path fill="none" stroke="#3f3c28" stroke-linejoin="round" stroke-width="1.1" d="M140 156.9q4.6 7.9 11.6 10.5c15 2.6 26.6 2.6 84.4 2.6s69.4 0 84.4-2.6q7-2.6 11.6-10.5"/><path fill="#6f6a44" d="M206 128h60v6h-60Z"/><path fill="#2c2a1c" d="M140 169h192v5H140Z" opacity=".3"/><path fill="#d8cba4" d="M196 118h80v16h-80Z"/><path fill="#c3b48c" d="M196 118h40v16h-40Z"/><path fill="#a8a074" d="m212.4 90-3.4 11.4c-6.7 4.1-16.9 9.3-23.6 11.4q-3.4.5-5.4-3.1 2.7 6.2 6.7 8.2c8.8 2.1 15.6 2.1 49.3 2.1s40.5 0 49.3-2.1q4-2 6.7-8.2-2 3.6-5.4 3.1c-6.7-2.1-16.9-7.3-23.6-11.4L259.6 90Z"/><path fill="none" stroke="#3f3c28" stroke-linejoin="round" stroke-width=".9" d="M180 109.7q2.7 6.2 6.7 8.2c8.8 2.1 15.6 2.1 49.3 2.1s40.5 0 49.3-2.1q4-2 6.7-8.2"/><path fill="#312e20" d="M180 119h112v3.6H180Z" opacity=".3"/><path fill="#6f6a44" d="M224 88h24v4h-24Z"/><path fill="#c8a24e" d="M233.4 88a2.6 2.6 0 1 0 5.2 0 2.6 2.6 0 1 0-5.2 0m2-10h1.2v10h-1.2Z"/><circle cx="236" cy="84" r="8" fill="url(#guangxiao-glow4)"/><path fill="#3a241c" d="M158 170h156v40H158Z"/><path fill="#9c3a2c" d="M155.7 168h4.6v40h-4.6Z"/><path fill="#c4573e" d="M155.7 168h1.8v40h-1.8Z" opacity=".7"/><path fill="#9c3a2c" d="M178 168h4.6v40H178Z"/><path fill="#c4573e" d="M178 168h1.8v40H178Z" opacity=".7"/><path fill="#9c3a2c" d="M200.3 168h4.6v40h-4.6Z"/><path fill="#c4573e" d="M200.3 168h1.8v40h-1.8Z" opacity=".7"/><path fill="#9c3a2c" d="M222.6 168h4.6v40h-4.6Z"/><path fill="#c4573e" d="M222.6 168h1.8v40h-1.8Z" opacity=".7"/><path fill="#9c3a2c" d="M244.8 168h4.6v40h-4.6Z"/><path fill="#c4573e" d="M244.8 168h1.8v40h-1.8Z" opacity=".7"/><path fill="#9c3a2c" d="M267.1 168h4.6v40h-4.6Z"/><path fill="#c4573e" d="M267.1 168h1.8v40h-1.8Z" opacity=".7"/><path fill="#9c3a2c" d="M289.4 168h4.6v40h-4.6Z"/><path fill="#c4573e" d="M289.4 168h1.8v40h-1.8Z" opacity=".7"/><path fill="#e8a969" d="M205.6 174h16.3v32h-16.3Z"/><circle cx="213.7" cy="190" r="16" fill="url(#guangxiao-glow5)"/><path fill="#e8a969" d="M227.9 174h16.3v32h-16.3Z"/><circle cx="236" cy="190" r="16" fill="url(#guangxiao-glow6)"/><path fill="#e8a969" d="M250.1 174h16.3v32h-16.3Z"/><circle cx="258.3" cy="190" r="16" fill="url(#guangxiao-glow7)"/><path fill="#4a2e22" d="M161 176h16.3v30H161Zm22.3 0h16.3v30h-16.3Zm89.1 0h16.3v30h-16.3Zm22.3 0H311v30h-16.3Z"/><path fill="#241610" d="M158 170h156v3.2H158Z" opacity=".3"/><path fill="#241710" d="M158 168h7v42h-7Z" opacity=".4"/><path fill="#e6be86" d="M310 168h4v42h-4Z" opacity=".5"/><path fill="#d6c99f" d="M148 206h176v8H148Z"/><path fill="#f0e3ba" d="M148 206h176v1.8H148Z"/><path fill="#c2b28a" d="M140 214h192v8H140Z"/><path fill="#e2d3a6" d="M140 214h192v1.6H140Z"/><path fill="#ac9a72" d="M132 222h208v9H132Z"/><path fill="#cabb90" d="M132 222h208v1.6H132Zm4-22h200v5H136Z"/><path fill="none" stroke="#b3a37c" stroke-width="1.8" d="M139 200v-9m7 9v-9m7 9v-9m7 9v-9m7 9v-9m7 9v-9m7 9v-9m7 9v-9m7 9v-9m7 9v-9m7 9v-9m7 9v-9m7 9v-9m7 9v-9m7 9v-9m7 9v-9m7 9v-9m7 9v-9m7 9v-9m7 9v-9m7 9v-9m7 9v-9m7 9v-9m7 9v-9m7 9v-9m7 9v-9m7 9v-9m7 9v-9m7 9v-9"/><path fill="#9c8c66" d="M134 198h4v9h-4Zm200 0h4v9h-4Zm-215 16h10v9h-10Zm1.6-18h6.8v18h-6.8Zm-2.6-6h12v6h-12Z"/><path fill="#4a3c2a" d="M121.8 199h4.4v10h-4.4Z"/><circle cx="124" cy="193" r="7" fill="url(#guangxiao-glow8)"/><path fill="#9c8c66" d="M343 214h10v9h-10Zm1.6-18h6.8v18h-6.8Zm-2.6-6h12v6h-12Z"/><path fill="#4a3c2a" d="M345.8 199h4.4v10h-4.4Z"/><circle cx="348" cy="193" r="7" fill="url(#guangxiao-glow9)"/><path fill="#6a2e1e" d="M185.4 148h3.2v20h-3.2Z"/><circle cx="187" cy="150" r="9" fill="url(#guangxiao-glow10)"/><path fill="#d8402e" d="M183.6 150a3.4 4 0 1 0 6.8 0 3.4 4 0 1 0-6.8 0"/><path fill="#6a2e1e" d="M283.4 148h3.2v20h-3.2Z"/><circle cx="285" cy="150" r="9" fill="url(#guangxiao-glow11)"/><path fill="#d8402e" d="M281.6 150a3.4 4 0 1 0 6.8 0 3.4 4 0 1 0-6.8 0"/><circle cx="66" cy="190" r="90" fill="url(#guangxiao-glow12)"/><path fill="#4a3a28" d="M65.2 218c3.6-24.5 1.8-45.5-12.2-70l7-3.5c12.2 17.5 15.8 21 31.5-3.5l5.3 5.2C82.8 169 81 193.5 84.5 218Z"/><path fill="none" stroke="#4a3a28" stroke-width="1.2" d="M61.5 150.2q-2.3 33.9 4.4 55.7M94 143.4q-.9 37.3 2.4 62.5m7.1-64.8q2.4 38.5-.6 73.6m-65.7-74.9q-2.3 39.1 1.7 65.2m-11.2-66.5q-3.2 39.8 3.9 61.8m12.6-60.6q1.6 39.2-4 64.2m-5.7-68.1q1.3 41.1 5 81.1M54.9 142q.7 38-3.4 57.4m58.9-50.7q-2.5 34.6 1.7 60.7" opacity=".8"/><path fill="#2f5a38" d="M71.8 129.1a23.9 15.9 0 1 0 47.7 0 23.9 15.9 0 1 0-47.7 0m-86.1 12.7a24.7 16.5 0 1 0 49.4 0 24.7 16.5 0 1 0-49.4 0m90.4-9a28.3 18.9 0 1 0 56.6 0 28.3 18.9 0 1 0-56.6 0m-24-21.6a27.2 18.1 0 1 0 54.3 0 27.2 18.1 0 1 0-54.3 0m-21.5 27.9a19.7 13.2 0 1 0 39.5 0 19.7 13.2 0 1 0-39.5 0m-47.8-3.1a29.9 19.9 0 1 0 59.8 0 29.9 19.9 0 1 0-59.8 0m97.4 4.4a27.2 18.1 0 1 0 54.4 0 27.2 18.1 0 1 0-54.4 0m-82.9-9.9a27.2 18.1 0 1 0 54.3 0 27.2 18.1 0 1 0-54.3 0m85.7-1.1a24.2 16.1 0 1 0 48.3 0 24.2 16.1 0 1 0-48.3 0m15.4-1.4a21.9 14.6 0 1 0 43.9 0 21.9 14.6 0 1 0-43.9 0m-60.2-10.4a27.5 18.3 0 1 0 54.9 0 27.5 18.3 0 1 0-54.9 0M31 128.1a31.1 20.7 0 1 0 62.2 0 31.1 20.7 0 1 0-62.2 0m-14.3 9.7a27.5 18.4 0 1 0 55.1 0 27.5 18.4 0 1 0-55.1 0m4.6-16.3a23 15.3 0 1 0 46 0 23 15.3 0 1 0-46 0m79.1 17.4a30.1 20 0 1 0 60.1 0 30.1 20 0 1 0-60.1 0m-14.6-12.1a21.6 14.4 0 1 0 43.2 0 21.6 14.4 0 1 0-43.2 0"/><path fill="#6e9e58" d="M71.3 123.9a20.9 13.9 0 1 0 41.8 0 20.9 13.9 0 1 0-41.8 0m-86 12.7a21.6 14.4 0 1 0 43.2 0 21.6 14.4 0 1 0-43.2 0m90.8-9a24.7 16.5 0 1 0 49.5 0 24.7 16.5 0 1 0-49.5 0M52 105.9a23.8 15.8 0 1 0 47.5 0 23.8 15.8 0 1 0-47.5 0m-22.5 27.9a17.3 11.5 0 1 0 34.5 0 17.3 11.5 0 1 0-34.5 0m-46.4-3.1a26.2 17.5 0 1 0 52.4 0 26.2 17.5 0 1 0-52.4 0m97 4.4a23.8 15.9 0 1 0 47.6 0 23.8 15.9 0 1 0-47.6 0m-82.9-9.8a23.8 15.8 0 1 0 47.5 0 23.8 15.8 0 1 0-47.5 0m85.3-1.1a21.2 14.1 0 1 0 42.3 0 21.2 14.1 0 1 0-42.3 0m15.1-1.4a19.2 12.8 0 1 0 38.4 0 19.2 12.8 0 1 0-38.4 0m-59.5-10.5a24 16 0 1 0 48.1 0 24 16 0 1 0-48.1 0m-6.7 10.5a27.2 18.1 0 1 0 54.4 0 27.2 18.1 0 1 0-54.4 0m-14.8 9.7a24.1 16.1 0 1 0 48.2 0 24.1 16.1 0 1 0-48.2 0m4.1-16.2a20.1 13.4 0 1 0 40.3 0 20.1 13.4 0 1 0-40.3 0m80 17.3a26.3 17.5 0 1 0 52.6 0 26.3 17.5 0 1 0-52.6 0M85 121.5a18.9 12.6 0 1 0 37.8 0 18.9 12.6 0 1 0-37.8 0"/><path stroke="#ffe9a8" stroke-linecap="round" stroke-width="1.6" d="M114 90.1h0M31.6 90h0m95.3 13.2h0M43.6 109h0m-.2-16h0m44.9-3.3h0m19.7 8h0m-54.4 3.7h0m-11.3-4h0m27.4.7h0m12.6-7.3h0m-13.8-5.2h0m2.6 29.2h0M46 94.3h0" opacity=".7"/><path stroke="#a9cf82" stroke-linecap="round" stroke-width="3.2" d="M57.5 104.8h0m18 14.8h0m41.6-16.5h0m-46.4 1.1h0m3-2.1h0m-5.9-11.7h0m-33 .1h0m.4 22.7h0m64-1.9h0" opacity=".5"/><path fill="#2f5a38" d="M-6 130c16-22 24-46 20-76l6-2c4 32-4 56-18 80Z" opacity=".8"/><path fill="url(#guangxiao-gr)" d="M0 208h360v32H0z"/><path fill="none" stroke="#8a7048" stroke-width=".8" d="M166.6 208-260 240m431.3-32L-226 240m402.1-32L-192 240m372.8-32L-158 240m343.6-32L-124 240m314.4-32L-90 240m285.1-32L-56 240m255.9-32L-22 240m226.6-32L12 240m197.4-32L46 240m168.2-32L80 240m138.9-32L114 240m109.7-32L148 240m80.4-32L182 240m51.2-32L216 240m22-32 12 32m-7.3-32 41.3 32m-36.5-32 70.5 32m-65.8-32 99.8 32m-95-32 129 32m-124.2-32L420 240m-153.5-32L454 240m-182.7-32L488 240m-212-32 246 32m-241.2-32L556 240m-270.4-32L590 240M0 212h360M0 219h360M0 227h360M0 236h360" opacity=".5"/><path fill="#ffffff1c" d="M-17.1 208H9.1v4h-26.2Z"/><path fill="#00000022" d="M216.5 208H236v4h-19.5Z"/><path fill="#ffffff1c" d="M236 208h30.5v4H236Z"/><path fill="#00000022" d="M94.6 212h31.8v7H94.6Z"/><path fill="#ffffff1c" d="M126.4 212h30.9v7h-30.9Z"/><path fill="#00000022" d="M183 212h33.3v7H183Z"/><path fill="#ffffff1c" d="M216.3 212h31.6v7h-31.6Zm-35.5 7H228v8h-47.2Zm47.2 0h41.4v8H228Zm-72.9 8h59.4v9h-59.4Zm160.7 0h59.4v9h-59.4Zm-73.9 9H290v4h-48.1Z"/><path fill="#8e714e" d="M176 208h70l-40 28h-80Z" opacity=".2"/><path fill="#5a4a34" d="m20 222 40-12 50 26-50 4Z" opacity=".2"/><ellipse cx="70" cy="222" fill="url(#guangxiao-tsh)" rx="78" ry="11"/><path fill="#3a2e1e" d="M138 240a34 5 0 1 0 68 0 34 5 0 1 0-68 0" opacity=".4"/><path fill="#8a7050" d="M148 234h48v7h-48Z"/><path fill="#a9906a" d="M148 234h48v2h-48Z"/><path fill="#6e5738" d="M150 231a22 3.4 0 1 0 44 0 22 3.4 0 1 0-44 0" opacity=".4"/><path fill="#3c2c20" d="M153 209h38l-3 16q-16 7-32 0Zm5 15-3.5 8h5.5l3-4Zm28 0 3.5 8H184l-3-4Zm-30-15-3-7h6.5l1 7Zm32 0 3-7h-6.5l-1 7Z"/><path fill="#6b5236" d="M153 209h19l-2 14q-8 1-14 2Z" opacity=".8"/><path fill="#5a4230" d="M151 206.8h42v2.8h-42Z"/><path fill="#8a7050" d="M151 206.8h14v2.8h-14Z" opacity=".8"/><path fill="none" stroke="#7a4228" stroke-width=".8" d="M166 208v-6m3 6v-8m3 8v-6m3 6v-8m3 8v-6m3 6v-8"/><path stroke="#ff8a44" stroke-linecap="round" stroke-width="1.5" d="M166 201.4h0m3-2h0m3 2h0m3-2h0m3 2h0m3-2h0"/><circle cx="172" cy="204" r="13" fill="url(#guangxiao-glow15)"/><g filter="url(#guangxiao-sm)" opacity=".6"><path fill="none" stroke="#f2ead8" stroke-linecap="round" stroke-width="3.6" d="M168 206c-7-11 6-18 0-30s8-19-1-28m11 58c6-9-4-16 3-26s-3-20 8-27"/></g><path fill="none" stroke="#fffaf0" stroke-width=".6" d="M168 206c-7-11 6-18 0-30s8-19-1-28m11 58c6-9-4-16 3-26s-3-20 8-27" opacity=".3"/><path fill="#332a22" d="M109.8 221.4a2.2 2.4 0 1 0 4.5 0 2.2 2.4 0 1 0-4.5 0m-.6 2.8q2.8-1.5 5.6 0l.4 7.3-1.4.1 2.4 8.4h-1.6l-2.6-6.6-2.6 6.6h-1.6l2.4-8.4-1.4-.1Zm120.4-4.6a2.4 2.6 0 1 0 4.9 0 2.4 2.6 0 1 0-4.9 0m5.6 3.2q-3.2-1.8-6.4 0l-.5 7.9h1.4l.1 9.3h1.6l.6-7.9.6 7.9h1.6l.1-9.3h1.4Zm84.7-.6a2.1 2.2 0 1 0 4.2 0 2.1 2.2 0 1 0-4.2 0m4.7 2.8q-2.6-1.5-5.2 0l-.4 6.9 1.2.1-2.2 8h1.5l2.5-6.2 2.5 6.2h1.5l-2.2-8 1.2-.1Z"/><path fill="#7a3a2c" d="M141.9 220.2a2.1 2.2 0 1 0 4.2 0 2.1 2.2 0 1 0-4.2 0m-.7 2.8q2.8-1.5 5.6 0l.4 6.9H146l-.1 8.1h-1.4l-.5-6.9-.5 6.9h-1.4l-.1-8.1h-1.2Z"/><path fill="none" stroke="#8b4a2e" stroke-width=".7" d="m148.6 220.4-3-8.4m5.8 9 3.4-8"/><path stroke="#ff8a44" stroke-linecap="round" stroke-width="1.6" d="M145.4 211h0m9.6 1h0"/><path fill="url(#guangxiao-vig)" d="M0 0h360v240H0z"/><path d="M0 0h360v240H0z" filter="url(#guangxiao-gr)" opacity=".2" style="mix-blend-mode:overlay"/></svg>