<svg xmlns="http://www.w3.org/2000/svg" class="ill" preserveAspectRatio="xMidYMid slice" viewBox="0 0 360 240"><defs><linearGradient id="mgrandview-wat" x1="0" x2="0" y1="20" y2="182" gradientUnits="userSpaceOnUse"><stop offset="0" stop-color="#5fcdea"/><stop offset=".2" stop-color="#34a0d4"/><stop offset=".6" stop-color="#1769ad"/><stop offset="1" stop-color="#0a2f69"/></linearGradient><linearGradient id="mgrandview-ray" x1="0" x2="0" y1="20" y2="182" gradientUnits="userSpaceOnUse"><stop offset="0" stop-color="#e9fbff" stop-opacity=".5"/><stop offset=".6" stop-color="#bdeaff" stop-opacity=".1"/><stop offset="1" stop-color="#bdeaff" stop-opacity="0"/></linearGradient><linearGradient id="mgrandview-bf" x1="0" x2="0" y1="0" y2="1"><stop offset="0" stop-color="#a6dcf0"/><stop offset=".6" stop-color="#6cb7da"/><stop offset="1" stop-color="#3f8fc0"/></linearGradient><linearGradient id="mgrandview-bf2" x1="0" x2="0" y1="0" y2="1"><stop offset="0" stop-color="#a6dcf0"/><stop offset=".6" stop-color="#6cb7da"/><stop offset="1" stop-color="#3f8fc0"/></linearGradient><linearGradient id="mgrandview-bel" x1="0" x2="0" y1="0" y2="1"><stop offset="0" stop-color="#f4fcff"/><stop offset=".5" stop-color="#cfe8f4"/><stop offset="1" stop-color="#86b4d6"/></linearGradient><linearGradient id="mgrandview-bel2" x1="0" x2="0" y1="0" y2="1"><stop offset="0" stop-color="#f4fcff"/><stop offset=".5" stop-color="#cfe8f4"/><stop offset="1" stop-color="#86b4d6"/></linearGradient><linearGradient id="mgrandview-ceil" x1="0" x2="0" y1="0" y2="30" gradientUnits="userSpaceOnUse"><stop offset="0" stop-color="#03070f"/><stop offset="1" stop-color="#0b2147" stop-opacity="0"/></linearGradient><linearGradient id="mgrandview-fl" x1="0" x2="0" y1="182" y2="240" gradientUnits="userSpaceOnUse"><stop offset="0" stop-color="#0c2f5e"/><stop offset=".3" stop-color="#071a38"/><stop offset="1" stop-color="#030816"/></linearGradient><linearGradient id="mgrandview-pool" x1="0" x2="0" y1="183" y2="240" gradientUnits="userSpaceOnUse"><stop offset="0" stop-color="#58bde6" stop-opacity=".5"/><stop offset=".5" stop-color="#2a86c4" stop-opacity=".2"/><stop offset="1" stop-color="#1a5da0" stop-opacity="0"/></linearGradient><radialGradient id="mgrandview-glow2" cx="250" cy="30" r="130" gradientUnits="userSpaceOnUse"><stop offset="0" stop-color="#c9f4ff" stop-opacity=".6"/><stop offset=".4" stop-color="#c9f4ff" stop-opacity=".2"/><stop offset="1" stop-color="#c9f4ff" stop-opacity="0"/></radialGradient><radialGradient id="mgrandview-glow12" cx="214" cy="196" r="60" gradientUnits="userSpaceOnUse"><stop offset="0" stop-color="#6cc9ef" stop-opacity=".2"/><stop offset=".4" stop-color="#6cc9ef" stop-opacity=".1"/><stop offset="1" stop-color="#6cc9ef" stop-opacity="0"/></radialGradient><radialGradient id="mgrandview-vig" cx=".5" cy=".5" r=".8"><stop offset=".6" stop-opacity="0"/><stop offset="1" stop-opacity=".4"/></radialGradient><filter id="mgrandview-rb" width="200%" height="200%" x="-50%" y="-50%"><feGaussianBlur stdDeviation="1.6"/></filter><filter id="mgrandview-gr" width="100%" height="100%" x="0" y="0"><feTurbulence baseFrequency=".8" numOctaves="2" seed="3" stitchTiles="stitch" type="fractalNoise"/><feColorMatrix values="0 0 0 0 .5 0 0 0 0 .5 0 0 0 0 .5 0 0 0 1.6 -.55"/></filter><clipPath id="mgrandview-win"><rect width="342" height="162" x="9" y="20" rx="3"/></clipPath></defs><path fill="#050d1f" d="M0 0h360v240H0z"/><g clip-path="url(#mgrandview-win)"><path fill="url(#mgrandview-wat)" d="M9 20h342v162H9z"/><circle cx="250" cy="30" r="130" fill="url(#mgrandview-glow2)"/><path stroke="#a6e4f5" stroke-linecap="round" stroke-width="1.6" d="M220.8 121.6h0m57.2 22.1h0m-18.4-2.2h0m-236-50.3h0m303.6 20.2h0m-14.1-58.9h0M169.7 67.1h0m24.8 36h0M18.4 63.8h0m88.4 77h0m161.4-83.2h0m10.5-2.3h0M219 53.9h0m-204.4 82h0m68.9-72.2h0M340.2 136h0M110 145.8h0m83-31.2h0M82 143.5h0m161.3 2.8h0m67.4-73.4h0M133.9 58.3h0M62.4 47.2h0m51.7 59.1h0m-99 8.3h0m111.1-40.5h0m159.5 18.8h0m-166.9 0h0M248 46.3h0m89.7-3.8h0m-74.8 90.4h0M20 126.7h0m115.6-23.1h0M17 45.1h0" opacity=".5"/><g filter="url(#mgrandview-rb)"><path fill="url(#mgrandview-ray)" d="M30 20h16L0 182h-22.4Zm62 0h10L62 182H48Zm48 0h22l-52 162H79.2Zm65 0h12l-44 162h-16.8Zm57 0h20l-50 162h-28Zm56 0h12l-42 162h-16.8Z"/></g><path fill="#2a7fb8" d="M0 192v-38.7l6.7-20.4 4.9 5.8 7.7 17.5v-1.7l6.8-17.6 4.9 5 7.8 15.1v-3.7l11.5-20.1 8.1 5.7 13.1 17.3v.7l7.8-12 5.5 3.4 8.9 10.3v-4.3l8.9-17.8 6.4 5.1 10.2 15.3v-2.4l6.3-17.5 4.4 5 7.2 15v-3.2l10.6-19 7.6 5.4 12.2 16.4v-3.3l5.8-20.2 4.2 5.8 6.6 17.3v.8l6.2-11.8 4.4 3.3 7.1 10.1v-5.1l9.4-19.9 6.8 5.7 10.8 17v-2.8l7.7-20 5.5 5.7 8.9 17.1v.8l9-11.3 6.5 3.2 10.3 9.8v-.9l7.6-9.4 5.4 2.7 8.7 8.1v-1.2l6.1-9.1 4.3 2.6 7 7.8V153l9.9-20.9 7.1 6 11.4 17.9v2.7l6.6-7.7 4.8 2.2 7.5 6.6V192Z" opacity=".7"/><path fill="#175b99" d="M0 202v-33.7l9.7-8.7 7 2.5 11.1 7.4v-.2l6.9-6.1 4.9 1.7 7.9 5.3v-3l7.8-11.1 5.6 3.2 8.9 9.5v-.1l7.1-7.8 5.1 2.3 8.2 6.6v-2.9l5.2-11.9 3.7 3.4 5.9 10.2v-.2l5-8.3 3.6 2.4 5.8 7.1v.1l9-5.3 6.5 1.5 10.3 4.6v-3.7l8.5-12.2 6 3.5 9.7 10.4v-1.1l8-10.9 5.7 3.1 9.1 9.3v-.3l5.5-7.8 3.8 2.2 6.2 6.8v-2.6l5.7-11.3 4 3.2 6.4 9.7v-.2l6.4-8 4.5 2.2 7.2 6.9v-2.6l9.8-11.3 7 3.2 11.2 9.8v-.2l9.7-8 6.9 2.2 11.1 6.9v-2.1l7.3-10.4 5.2 3 8.3 8.8v.2l7.3-6.7 5.2 1.9 8.2 5.7v-.4l6.9-5.5 4.9 1.6 7.9 4.6v-3.8l6.7-12.5 4.9 3.6 7.7 10.7V202Z"/><g opacity=".8" transform="scale(-.6 .6)rotate(-3 2593.2 3125)"><path fill="url(#mgrandview-bf)" d="M-47 1c-5-3-11-9-17-11 3 6 4 9 6 11-2 2-4 5-6 10 6-3 12-7 17-9Z"/><path fill="#3f86b8" d="M12 8c6 4 8 11 2 14 0-6-6-11-10-13Z"/><path fill="url(#mgrandview-bf)" d="M-48 0c14-9 38-14 62-13 10 0 14-4 24-4 8 0 12 7 13 13 1 4 0 7-2 8-3 2-7 2-11 4-18 6-50 4-86-6Z"/><path fill="#3f86b8" d="M-46 2c34 11 68 12 84 6 6-2 12-3 13-6-11 3-31 7-97-1Z" opacity=".7"/><path fill="#b5e2f4" d="M-36-4c18-7 38-9 58-8 6-1 10-4 18-3 4 1 6 3 8 6-10-3-34-1-50 1-14 2-26 5-34 4" opacity=".6"/><circle cx="42" cy="-3" r="1.1" fill="#16405f"/></g><g opacity=".7" transform="scale(-.4 .4)rotate(5 -1962.5 -4217)"><path fill="url(#mgrandview-bf2)" d="M-47 1c-5-3-11-9-17-11 3 6 4 9 6 11-2 2-4 5-6 10 6-3 12-7 17-9Z"/><path fill="#3f86b8" d="M12 8c6 4 8 11 2 14 0-6-6-11-10-13Z"/><path fill="url(#mgrandview-bf2)" d="M-48 0c14-9 38-14 62-13 10 0 14-4 24-4 8 0 12 7 13 13 1 4 0 7-2 8-3 2-7 2-11 4-18 6-50 4-86-6Z"/><path fill="#3f86b8" d="M-46 2c34 11 68 12 84 6 6-2 12-3 13-6-11 3-31 7-97-1Z" opacity=".7"/><path fill="#b5e2f4" d="M-36-4c18-7 38-9 58-8 6-1 10-4 18-3 4 1 6 3 8 6-10-3-34-1-50 1-14 2-26 5-34 4" opacity=".6"/><circle cx="42" cy="-3" r="1.1" fill="#16405f"/></g><path fill="#12467f" d="M255.3 67.6c12.8-8.1 25-18.6 34-22 9.7-1.2 25.4 2.3 40.5 3.4-13 7-24.4 11-32.6 13.1l4 26.2-2.2.6-8.8-25c-8.1 2-20 3.7-34.9 3.7m29.4-21-3.8-5.2 6.2 4.7Zm9.3-2.2 1-6.4-3.3 7Z"/><path fill="#6fc1e8" d="M257.5 66.5c10.6-7 23-17 32-20.4 9.6-1.2 25.2 1.8 37.9 3-12.3.5-27.2 0-36.9 1-9 3.6-22 11.1-33 16.4" opacity=".6"/><g opacity=".8"><path fill="#3a85b8" d="M36.1 49.7c6.3-.8 12.8-2.4 16.8-2.1 3.8 1.3 9 5.5 14.5 8.7q-9.3.2-14.6-1l-3.2 10.5-1-.2 1.3-11q-5.2-1-13.8-5M51 47.2l-.5-2.7 1.5 2.9Zm3.9.8 1.5-2.2-2.5 2Z"/><path fill="#a6e0f4" d="M37.2 49.6c5.2-.7 11.7-2.1 15.7-1.8 3.8 1.4 9 5.3 13.6 8-4.7-2-10.2-5-14-6.2-4-.4-10.2 0-15.3 0" opacity=".6"/></g><path fill="#e3f6fc" d="M86.5 120.5q-1.1-2.3.8-4.2l-.8-1.7 2.2.4-1.4 1.3q1.1 2.5-.8 4.2m25.9 6.3q-1-2.9 1.5-5l-.7-2.2 2.6.8-1.9 1.4q1 3.2-1.5 5m-9.4 4.1q-.5-3.1 2.5-4.7l-.3-2.3 2.4 1.3-2.1 1q.3 3.4-2.5 4.7m-10.1 1.9q.1-2.6 2.8-3.5v-1.9l1.8 1.4-1.8.5q-.2 2.8-2.8 3.5m-9.7.2q.3-2 2.4-2.3l.3-1.5 1.2 1.3-1.5.2q-.4 2-2.4 2.3m-9.2-1.2q.9-1.6 2.9-1.4l.6-1.2.7 1.5-1.3-.3q-1.1 1.7-2.9 1.4m-7.7-2.6q1.8-1.4 3.9 0l1.4-1v2l-1.4-1q-2.1 1.4-3.9 0m-9.6 12.9q2.8-1.1 4.9 1.4l2-.8-.7 2.5-1.3-1.7q-3.1 1-4.9-1.4M46.6 138q3.1-1.1 5.2 1.7l2.3-.8-.9 2.7-1.4-1.9q-3.3.9-5.2-1.7m-5.6-5.6q2.8.2 3.6 3.1l2 .2-1.6 1.9-.4-2.1q-3-.4-3.6-3.1m-2.3-4.8q2 .6 2.1 2.9l1.5.5-1.6 1.1.1-1.6q-2.2-.8-2.1-2.9m.5-4.6q1.6.9 1.2 2.8l1.2.7-1.5.6.3-1.3q-1.6-1.1-1.2-2.8m3.1-4.4q1.5 1.5.6 3.6l1.1 1.1-1.9.3.8-1.4q-1.6-1.7-.6-3.6m-27.7-3.7q1.4 2.4-.6 4.7l1 1.8-2.4-.3 1.4-1.5q-1.3-2.7.6-4.7m7.1-5.9q1.3 2.8-1.1 5.3l1 2.1-2.8-.5 1.8-1.6q-1.3-3.2 1.1-5.3m9.7-3.4q.2 3-2.7 4.2l.1 2.2-2.2-1.4 2.1-.8q-.1-3.2 2.7-4.2m9.5-1.6q0 2.3-2.4 3.1v1.7l-1.6-1.2 1.6-.5q.2-2.5 2.4-3.1m9.6.2q-.6 1.7-2.6 1.7l-.4 1.3-.9-1.4 1.3.1q.8-1.8 2.6-1.7m8.9 1.3q-1.3 1.6-3.3.8l-1 1.1-.4-1.7 1.4.6q1.4-1.6 3.3-.8m3.9-14.1q-2.1 1.7-4.4.2l-1.6 1.1v-2.3l1.6 1.2q2.3-1.7 4.4-.2m12.7 3q-2.7 1.8-5.4-.3l-1.9 1.3.1-2.8 1.8 1.5q3-1.7 5.4.3m8.7 5.4q-3.1.3-4.4-2.8l-2.3.2 1.4-2.3.9 2.1q3.3 0 4.4 2.8m5.3 4.6q-2.5-.1-3.3-2.7l-1.9-.1 1.4-1.7.5 1.8q2.7.3 3.3 2.7m1.9 4.7q-1.9-.5-2.1-2.5l-1.3-.4 1.3-1.1v1.5q2 .6 2.1 2.5m-.5 4.4q-1.8-.5-2-2.5l-1.3-.4 1.3-1v1.4q1.9.7 2 2.5m-3.7 4.5q-1.8-1.6-.8-4l-1.3-1.2 2.1-.4-.8 1.6q1.9 1.9.8 4m28 3.7q-2-2.3-.4-5.1l-1.4-1.7 2.6-.2-1.2 1.9q2 2.6.4 5.1m-8.1 5.2q-1-3 1.8-5.1l-.7-2.2 2.6.9-1.9 1.3q.8 3.4-1.8 5.1m-8.9 3.1q-.4-2.7 2.2-4.1l-.3-1.9 2.1 1.1-1.8.8q.2 2.9-2.2 4.1m-9.7.9q.4-2 2.6-2.2l.4-1.5 1.2 1.4-1.6.1q-.6 2.1-2.6 2.2m-9.2 0q.8-1.7 2.7-1.5l.6-1.3.7 1.4-1.3-.1q-.9 1.7-2.7 1.5m-8.5-1.4q1.5-1.7 3.7-.8l1.1-1.2.4 1.9-1.5-.7q-1.7 1.7-3.7.8m-3.8 14.3q2-2 4.9-.7l1.5-1.5.4 2.5-1.9-1q-2.4 2.1-4.9.7m-11.8-3.9q2.9-1.3 5.3 1.2l2.2-1-.6 2.8-1.6-1.8q-3.2 1.2-5.3-1.2m-8-4.6q2.8-.4 4.3 2.3l2.1-.3-1.2 2.2-.9-1.9q-3.1.3-4.3-2.3m-4.4-4.7q2.2.3 2.7 2.6l1.6.2-1.4 1.4-.2-1.6q-2.4-.5-2.7-2.6m-1.7-4.4q1.7.3 2 2.2l1.4.3-1.2 1.1-.2-1.4q-1.9-.4-2-2.2m1.4-4.9q1.7 1.2 1.1 3.4l1.2.9-1.7.5.5-1.4q-1.8-1.4-1.1-3.4m-28.6-.8q1.7 2.1.2 4.6l1.3 1.6-2.4.1 1.1-1.7q-1.7-2.3-.2-4.6m4.8-6.7q1.6 2.8-.7 5.4l1.2 2.1-2.8-.4 1.6-1.7q-1.5-3.1.7-5.4m7.9-4.4q.5 3-2.4 4.6l.4 2.2-2.4-1.2 2-1q-.3-3.3 2.4-4.6m8.7-2.5q-.1 2.4-2.6 3.1l-.2 1.8-1.6-1.4 1.8-.4q.3-2.6 2.6-3.1m8.9-1.2q-.2 1.8-2.2 2.2l-.2 1.4-1.2-1.1 1.4-.3q.4-1.9 2.2-2.2m9.1.2q-.8 1.7-2.8 1.7l-.6 1.3-.8-1.5 1.4.2q.9-1.9 2.8-1.7" opacity=".9"/><path fill="#d8f2fa" d="M325.7 140q1.8-1.4 3.9 0l1.4-1v2l-1.4-1q-2.1 1.4-3.9 0m-1.4 1.9q2-1.2 3.9.4l1.5-.8-.2 2-1.3-1.2q-2.2 1.2-3.9-.4m-7.4 3.2q1.9-1.2 3.8.4l1.5-.9-.2 2-1.3-1.1q-2.2 1.1-3.8-.4m-5.8-5.1q1.8-1.3 3.9.1l1.4-1v2l-1.4-1q-2.1 1.4-3.9-.1m-5.7-1.7q1.7-1.5 3.9-.3l1.3-1.1.2 2-1.5-.9q-2 1.6-3.9.3m-6.7-5.1q1.7-1.5 3.9-.4l1.2-1.2.3 2-1.5-.8q-1.9 1.6-3.9.4m-6.3.5q1.8-1.4 4-.1l1.3-1 .1 2-1.4-1q-2.1 1.5-4 .1m-5.9 1.7q2-1.3 3.9.3l1.5-.9-.2 2-1.3-1.1q-2.1 1.2-3.9-.3m-9.6 1q2-1.2 3.9.5l1.5-.9-.3 2-1.2-1.1q-2.3 1.1-3.9-.5m-3.6 7.1q2-1.2 4 .2l1.4-.9-.1 2-1.3-1.1q-2.2 1.3-4-.2m-7.3 1.7q1.8-1.5 3.9-.3l1.3-1.1.2 2.1-1.5-1q-2 1.6-3.9.3" opacity=".8"/><path fill="#f3c978" d="M153.3 139q-3.3 1.2-5.6-1.7l-2.5.8.9-2.9 1.6 2.1q3.6-1.1 5.6 1.7m12.1 3.7q-3.1 1.5-5.8-1.2l-2.4 1.1.6-3 1.8 1.9q3.5-1.4 5.8 1.2m-22.2 4.7q-3.4.8-5.5-2.4l-2.5.6 1.2-2.8 1.3 2.2q3.8-.7 5.5 2.4m105.3-20q3.1-1.6 5.9 1l2.3-1.2-.4 3-1.9-1.8q-3.4 1.6-5.9-1"/><g transform="scale(-1.4 1.4)rotate(4 -1182.4 -2191)"><path fill="url(#mgrandview-bel)" d="M-47 1c-5-3-11-9-17-11 3 6 4 9 6 11-2 2-4 5-6 10 6-3 12-7 17-9Z"/><path fill="#6d9fc6" d="M12 8c6 4 8 11 2 14 0-6-6-11-10-13Z"/><path fill="url(#mgrandview-bel)" d="M-48 0c14-9 38-14 62-13 10 0 14-4 24-4 8 0 12 7 13 13 1 4 0 7-2 8-3 2-7 2-11 4-18 6-50 4-86-6Z"/><path fill="#6d9fc6" d="M-46 2c34 11 68 12 84 6 6-2 12-3 13-6-11 3-31 7-97-1Z" opacity=".7"/><path fill="#fff" d="M-36-4c18-7 38-9 58-8 6-1 10-4 18-3 4 1 6 3 8 6-10-3-34-1-50 1-14 2-26 5-34 4" opacity=".6"/><circle cx="42" cy="-3" r="1.1" fill="#16405f"/></g><g transform="scale(-.6 .6)rotate(-8 1591 1907.6)"><path fill="url(#mgrandview-bel2)" d="M-47 1c-5-3-11-9-17-11 3 6 4 9 6 11-2 2-4 5-6 10 6-3 12-7 17-9Z"/><path fill="#6d9fc6" d="M12 8c6 4 8 11 2 14 0-6-6-11-10-13Z"/><path fill="url(#mgrandview-bel2)" d="M-48 0c14-9 38-14 62-13 10 0 14-4 24-4 8 0 12 7 13 13 1 4 0 7-2 8-3 2-7 2-11 4-18 6-50 4-86-6Z"/><path fill="#6d9fc6" d="M-46 2c34 11 68 12 84 6 6-2 12-3 13-6-11 3-31 7-97-1Z" opacity=".7"/><path fill="#fff" d="M-36-4c18-7 38-9 58-8 6-1 10-4 18-3 4 1 6 3 8 6-10-3-34-1-50 1-14 2-26 5-34 4" opacity=".6"/><circle cx="42" cy="-3" r="1.1" fill="#16405f"/></g><path fill="#0b3569" d="M0 210v-31l7.5-2.3 5.4.7 8.7 1.9v-.7l6.9-3.2 4.9.9 7.8 2.8v-.3l5.2-2.7 3.6.8 5.9 2.3v-.5l6.2-3 4.5.9 7.1 2.5v-.1l5.7-2.2 4.1.6 6.5 2v-1.1l6.9-4 4.9 1.2 7.8 3.4v-1l7.5-5 5.3 1.4 8.5 4.3v-1.4l5.9-6.5 4.2 1.8 6.8 5.6v.1l4.9-4 3.5 1.1 5.6 3.5v-.6l6.1-4.1 4.3 1.2 6.9 3.5v-1.4l5.4-6.2 3.9 1.7 6.1 5.3v.8l6.5-2.3 4.6.7 7.4 1.9v-.4l7.5-2.6 5.3.8 8.6 2.2v-.9l7.2-3.8 5.1 1.1 8.2 3.2v-1.8l7.4-6.8 5.2 1.9 8.4 5.9v.1l8.3-4.1 6 1.2 9.5 3.5v-1l8.3-5.3 6 1.5 9.5 4.5v.3l6.4-2.8 4.6.8 7.4 2.4v-1.3l7.4-4.8 5.3 1.3 8.4 4.2V210Z"/><path fill="#0a2b5c" d="M9 176h342v8H9Z"/><path stroke="#fff" stroke-width=".9" d="M43.4 27h17.7m27.7 10.5h9.6M221 44h15m-64.7-11.9h14M32 26.2h15.3m50.3 1h5.3m25.4 3.8h20.6m195.6-6.5h7.2m-219-1.1h10.6m94.9 13.1h14.4m55.7-3.6h18M26.1 34.8h9.8m28.7 8H86m160.5 0h23.6m-146.9-1.4h15.7m125.5-.1h12.1m-33.3-17.2h11.9m-89 18.8h30.2m-9.8-16.6h6.7m120.7 6.9h7.9m-247.1 0h19.1m30-5.8h5.2m3.4.5h11.1M54.4 40.4h29.1m148-9.7h8.6m23.8 12.7h14.5m-10.8-14.8h5.6m-119.3.9h8.2m-5.8-2.4h10.4m-66.8 4.1h15.7m-72.7-7.1H48m230.6 9.4h13.2m42.8-.4h19.1M54.9 23.4h4.2" opacity=".4"/><path stroke="#8fd8f2" stroke-width=".9" d="M52.3 172.6h8.2m117.5 4.1h6m11 .3h7.2m-66.3-2.8h5.4m110.1.8h11.1m-218-5.4h4.8m154.3 3.5h14.6m40.6 2.6h10.8m-32.4-6.7h4.8m-208.4 6.3h10.9m58-4.6h5.3m200.1 5.4h8.4m-181.1.7h6.7m10-3.9h4.6m52.8 4.2h7.7m94.7-7.9h7.1m-282.9.8h3.3m-3.6 3.4h4.8" opacity=".3"/><path fill="#fff" d="M9 20h150L49 182H9Z" opacity=".1"/><path fill="#06224a" d="M121 20h1.6v162H121Zm117 0h1.6v162H238Z" opacity=".3"/></g><path fill="#050d1f" d="M0 0h360v20H0Zm0 20h9v162H0Zm351 0h9v162h-9Z"/><path fill="none" stroke="#0a1b3c" stroke-width="3" d="M9 20h342"/><path fill="url(#mgrandview-ceil)" d="M0 0h360v30H0z"/><path fill="#7fd0f0" d="M9 182h342v1.6H9Z" opacity=".6"/><path fill="url(#mgrandview-fl)" d="M0 182h360v58H0z"/><path fill="url(#mgrandview-pool)" d="M16 183h328l86 57H-70Z"/><path stroke="#8fdcf6" stroke-width=".9" d="M78.7 189.8v8.7m-6.2 8.3v10.4m7.1-31.2v8.4m3.1 8.6v5.8m70.4-20.3v7.3m-3.6 9.7v6.4m70.2-24.7v7.3m-.2 9.7v10.5m2.6-26.3v10.9m1.9 6.1v7.5m18.9-25.6v8m-4.2 9v7.9m58.5-25.7v7.7m-3.3 9.3v9.7m13.2-23.9v8.2m1.5 8.8v10.6m-190.1-27.8v6.6m-.6 10.4V217m62.7-29.8v7.8m.3 9.2v8.6" opacity=".3"/><circle cx="214" cy="196" r="60" fill="url(#mgrandview-glow12)"/><path fill="#67c0ea" d="M173.4 173.7a2.6 2.8 0 1 0 5.1 0 2.6 2.8 0 1 0-5.1 0m-.7 3.3q3.3-1.8 6.6 0l.6 8.2h-1.5l-.2 9.8h-1.6l-.6-8.2-.6 8.2h-1.6l-.2-9.8h-1.5Zm13.3 6.1a2 2.1 0 1 0 4 0 2 2.1 0 1 0-4 0m-.1 2.3q2.1-1.1 4.2 0l.5 5.2h-1.2l-.1 4.4h-1l-.3-3.9-.3 3.9h-1l-.1-4.4h-1.2Zm3.7.3 3.1-4.3 1.1.8-3.4 4.6Zm7.7-12.9a2.7 2.8 0 1 0 5.3 0 2.7 2.8 0 1 0-5.3 0m6.1 3.4q-3.4-1.8-6.8 0l-.7 8.6h1.6l.2 10.2h1.7l.6-8.6.6 8.6h1.7l.2-10.2h1.6Zm26.3-2.7a2.4 2.6 0 1 0 4.7 0 2.4 2.6 0 1 0-4.7 0m-.7 3q3-1.7 6 0l.6 7.6h-1.4l-.1 8.9h-1.5l-.6-7.6-.6 7.6h-1.5l-.1-8.9h-1.4Zm-8.8 6.9a1.8 1.9 0 1 0 3.6 0 1.8 1.9 0 1 0-3.6 0m-.1 2q1.9-.9 3.8 0l.4 4.7h-1.1v3.9h-1l-.2-3.5-.2 3.5h-1v-3.9h-1.1ZM73.3 174.8a2.7 2.8 0 1 0 5.3 0 2.7 2.8 0 1 0-5.3 0m-.7 3.4q3.4-1.8 6.8 0l.7 8.6h-1.6l-.2 10.2h-1.7l-.6-8.6-.6 8.6h-1.7l-.2-10.2h-1.6Zm13.3 6.5a2.1 2.2 0 1 0 4.2 0 2.1 2.2 0 1 0-4.2 0m4.3 2.3q-2.2-1.1-4.4 0l-.5 5.5h1.2l.1 4.5h1.1l.3-4.1.3 4.1h1.1l.1-4.5h1.2Zm-3.8.4-3.3-4.4-1.1.8 3.5 4.7Zm188.8-14.5a2.8 2.9 0 1 0 5.5 0 2.8 2.9 0 1 0-5.5 0m6.2 3.6q-3.4-1.9-6.8 0l-.5 8.9 1.6.2-2.9 10.4h2l3.2-8.1 3.2 8.1h2l-2.9-10.4 1.6-.2Zm7.7 8.4a1.9 1.9 0 1 0 3.7 0 1.9 1.9 0 1 0-3.7 0m3.8 2.2q-1.9-1-3.8 0l-.5 4.8h1.1l.1 4.1h1l.2-3.7.2 3.7h1l.1-4.1h1.1ZM117 174.2a3 3.1 0 1 0 6 0 3 3.1 0 1 0-6 0m-.8 3.8q3.8-2.1 7.6 0l.7 9.6h-1.7l-.2 11.4h-1.9l-.7-9.6-.7 9.6h-1.9l-.2-11.4h-1.7Zm1.9-13.1a1.9 1.9 0 1 0 3.7 0 1.9 1.9 0 1 0-3.7 0m-.1 2.2q2-1 4 0l.4 4.8h-1.1l-.1 4.1h-1l-.2-3.7-.2 3.7h-1l-.1-4.1h-1.1Zm3.5.3 2.9-4 1 .7-3.1 4.3Zm-91 17.4a5.5 5.9 0 1 0 11 0 5.5 5.9 0 1 0-11 0m-1.6 7.2q7.1-3.9 14.2 0l1.4 17.9h-3.3l-.3 21.1h-3.6L36 213.1 34.7 231h-3.6l-.3-21.1h-3.3ZM50 207.2a4 4.2 0 1 0 8 0 4 4.2 0 1 0-8 0m8.2 4.6q-4.2-2.1-8.4 0l-1 10.4h2.4l.2 8.8h2.1l.5-7.9.5 7.9h2.1l.2-8.8h2.4Zm-7.3.6-6.4-8.5-2 1.5 6.6 9.2Zm266.4-24.5a4.7 5 0 1 0 9.3 0 4.7 5 0 1 0-9.3 0m10.5 6.1q-5.8-3.3-11.6 0l-.8 15.1 2.7.3-4.9 17.6h3.3l5.5-13.8 5.5 13.8h3.3l-4.9-17.6 2.7-.3Z" opacity=".7"/><path fill="#040b1a" d="M173.4 174.7a2.5 2.7 0 1 0 5.1 0 2.5 2.7 0 1 0-5.1 0m-.7 3.3q3.3-1.8 6.6 0l.6 8.2h-1.5l-.2 9.8h-1.6l-.6-8.2-.6 8.2h-1.6l-.2-9.8h-1.5Zm13.3 6.1a2 2.1 0 1 0 4 0 2 2.1 0 1 0-4 0m-.1 2.3q2.1-1.1 4.2 0l.5 5.2h-1.2l-.1 4.4h-1l-.3-3.9-.3 3.9h-1l-.1-4.4h-1.2Zm3.7.3 3.1-4.3 1.1.8-3.4 4.6Zm7.7-12.9a2.7 2.8 0 1 0 5.3 0 2.7 2.8 0 1 0-5.3 0m6.1 3.4q-3.4-1.8-6.8 0l-.7 8.6h1.6l.2 10.2h1.7l.6-8.6.6 8.6h1.7l.2-10.2h1.6Zm26.3-2.7a2.3 2.5 0 1 0 4.7 0 2.3 2.5 0 1 0-4.7 0m-.7 3q3-1.7 6 0l.6 7.6h-1.4l-.1 8.9h-1.5l-.6-7.6-.6 7.6h-1.5l-.1-8.9h-1.4Zm-8.8 6.9a1.8 1.9 0 1 0 3.6 0 1.8 1.9 0 1 0-3.6 0m-.1 2q1.9-.9 3.8 0l.4 4.7h-1.1v3.9h-1l-.2-3.5-.2 3.5h-1v-3.9h-1.1ZM73.3 175.8a2.7 2.8 0 1 0 5.3 0 2.7 2.8 0 1 0-5.3 0m-.7 3.4q3.4-1.8 6.8 0l.7 8.6h-1.6l-.2 10.2h-1.7l-.6-8.6-.6 8.6h-1.7l-.2-10.2h-1.6Zm13.3 6.5a2.1 2.2 0 1 0 4.2 0 2.1 2.2 0 1 0-4.2 0m4.3 2.3q-2.2-1.1-4.4 0l-.5 5.5h1.2l.1 4.5h1.1l.3-4.1.3 4.1h1.1l.1-4.5h1.2Zm-3.8.4-3.3-4.4-1.1.8 3.5 4.7Zm188.8-14.5a2.8 2.9 0 1 0 5.5 0 2.8 2.9 0 1 0-5.5 0m6.2 3.6q-3.4-1.9-6.8 0l-.5 8.9 1.6.2-2.9 10.4h2l3.2-8.1 3.2 8.1h2l-2.9-10.4 1.6-.2Zm7.7 8.4a1.9 1.9 0 1 0 3.7 0 1.9 1.9 0 1 0-3.7 0m3.8 2.2q-1.9-1-3.8 0l-.5 4.8h1.1l.1 4.1h1l.2-3.7.2 3.7h1l.1-4.1h1.1ZM117 175.2a3 3.1 0 1 0 6 0 3 3.1 0 1 0-6 0m-.8 3.8q3.8-2.1 7.6 0l.7 9.6h-1.7l-.2 11.4h-1.9l-.7-9.6-.7 9.6h-1.9l-.2-11.4h-1.7Zm1.9-13.1a1.9 1.9 0 1 0 3.7 0 1.9 1.9 0 1 0-3.7 0m-.1 2.2q2-1 4 0l.4 4.8h-1.1l-.1 4.1h-1l-.2-3.7-.2 3.7h-1l-.1-4.1h-1.1Zm3.5.3 2.9-4 1 .7-3.1 4.3Zm-91 17.4a5.5 5.9 0 1 0 11 0 5.5 5.9 0 1 0-11 0m-1.6 7.2q7.1-3.9 14.2 0l1.4 17.9h-3.3l-.3 21.1h-3.6L36 214.1 34.7 232h-3.6l-.3-21.1h-3.3ZM50 208.2a4 4.2 0 1 0 8 0 4 4.2 0 1 0-8 0m8.2 4.6q-4.2-2.1-8.4 0l-1 10.4h2.4l.2 8.8h2.1l.5-7.9.5 7.9h2.1l.2-8.8h2.4Zm-7.3.6-6.4-8.5-2 1.5 6.6 9.2Zm266.4-24.5a4.7 5 0 1 0 9.3 0 4.7 5 0 1 0-9.3 0m10.5 6.1q-5.8-3.3-11.6 0l-.8 15.1 2.7.3-4.9 17.6h3.3l5.5-13.8 5.5 13.8h3.3l-4.9-17.6 2.7-.3Z"/><path fill="url(#mgrandview-vig)" d="M0 0h360v240H0z"/><path d="M0 0h360v240H0z" filter="url(#mgrandview-gr)" opacity=".2" style="mix-blend-mode:overlay"/></svg>