<svg xmlns="http://www.w3.org/2000/svg" class="ill" preserveAspectRatio="xMidYMid slice" viewBox="0 0 360 240"><defs><radialGradient id="mtowerplaza-glow1" cx="142" cy="138" r="120" gradientUnits="userSpaceOnUse"><stop offset="0" stop-color="#ffc08c" stop-opacity=".6"/><stop offset=".4" stop-color="#ffc08c" stop-opacity=".2"/><stop offset="1" stop-color="#ffc08c" stop-opacity="0"/></radialGradient><radialGradient id="mtowerplaza-glow2" cx="142" cy="138" r="30" gradientUnits="userSpaceOnUse"><stop offset="0" stop-color="#fff0c8" stop-opacity=".9"/><stop offset=".4" stop-color="#fff0c8" stop-opacity=".3"/><stop offset="1" stop-color="#fff0c8" stop-opacity="0"/></radialGradient><radialGradient id="mtowerplaza-glow4" cx="236" cy="114" r="62" gradientUnits="userSpaceOnUse"><stop offset="0" stop-color="#ffb79a" stop-opacity=".3"/><stop offset=".4" stop-color="#ffb79a" stop-opacity=".1"/><stop offset="1" stop-color="#ffb79a" stop-opacity="0"/></radialGradient><radialGradient id="mtowerplaza-glow8" cx="288" cy="168" r="20" gradientUnits="userSpaceOnUse"><stop offset="0" stop-color="#ffd9a0" stop-opacity=".5"/><stop offset=".4" stop-color="#ffd9a0" stop-opacity=".2"/><stop offset="1" stop-color="#ffd9a0" stop-opacity="0"/></radialGradient><radialGradient id="mtowerplaza-vig" cx=".5" cy=".5" r=".8"><stop offset=".6" stop-opacity="0"/><stop offset="1" stop-opacity=".3"/></radialGradient><linearGradient id="mtowerplaza-sky" x1="0" x2="0" y1="0" y2="164" gradientUnits="userSpaceOnUse"><stop offset="0" stop-color="#6c58a0"/><stop offset=".3" stop-color="#ac68a2"/><stop offset=".6" stop-color="#ee8c92"/><stop offset=".8" stop-color="#ffbb8a"/><stop offset="1" stop-color="#ffe0a6"/></linearGradient><linearGradient id="mtowerplaza-lat" x1="0" x2="0" y1="164" y2="48.2" gradientUnits="userSpaceOnUse"><stop offset="0" stop-color="#fff0d4"/><stop offset=".5" stop-color="#ffc9b0"/><stop offset="1" stop-color="#f59cb4"/></linearGradient><linearGradient id="mtowerplaza-pool" x1="0" x2="0" y1="164" y2="222" gradientUnits="userSpaceOnUse"><stop offset="0" stop-color="#f2a894"/><stop offset=".4" stop-color="#b9708f"/><stop offset="1" stop-color="#5b4575"/></linearGradient><linearGradient id="mtowerplaza-pov" x1="0" x2="0" y1="164" y2="222" gradientUnits="userSpaceOnUse"><stop offset="0" stop-color="#ffd0a8" stop-opacity="0"/><stop offset="1" stop-color="#3f2f66" stop-opacity=".5"/></linearGradient><filter id="mtowerplaza-gr" width="100%" height="100%" x="0" y="0"><feTurbulence baseFrequency=".8" numOctaves="2" seed="3" stitchTiles="stitch" type="fractalNoise"/><feColorMatrix values="0 0 0 0 .5 0 0 0 0 .5 0 0 0 0 .5 0 0 0 1.6 -.55"/></filter><g id="mtowerplaza-back"><path fill="url(#mtowerplaza-sky)" d="M0 0h360v164H0z"/><path stroke="#ffe9f5" stroke-linecap="round" d="M224.2 26.3h0m115.1-.1h0M10.4 14.6h0m158.5-6.8h0m-68.3 27.5h0" opacity=".6"/><path stroke="#ffe9f5" stroke-linecap="round" stroke-width="1.6" d="M233.6 34.5h0M206.6 4h0M57.5 29h0M222.3 5.3h0M313.7 7h0" opacity=".8"/><circle cx="142" cy="138" r="120" fill="url(#mtowerplaza-glow1)"/><circle cx="142" cy="138" r="30" fill="url(#mtowerplaza-glow2)"/><circle cx="142" cy="136" r="6.5" fill="#fff6dc"/><path fill="#f7a3b0" d="M-10 78q14-7 42-5.6 35-4.2 63-1.4 28 .7 35 7Z" opacity=".5"/><path fill="#ffb8a2" d="M180 62q15-6 45-4.8 37.5-3.6 67.5-1.2 30 .6 37.5 6Z" opacity=".5"/><path fill="#ffc8a0" d="M40 106q17-7 51-5.6 42.5-4.2 76.5-1.4 34 .7 42.5 7Z" opacity=".5"/><path fill="#f08fa8" d="M250 108q12-5 36-4 30-3 54-1 24 .5 30 5Z" opacity=".4"/><path stroke="#5a3f6e" stroke-linecap="round" stroke-width="1.3" d="M60 50h0m8-4h0m9 6h0m9-7h0" opacity=".7"/><path fill="#c98ba6" d="M120 116.4h8.4V166H120Zm11.3 30.8h7.4V166h-7.4Zm9.1-26.5h13V166h-13Zm15.9-9.5h7.9V166h-7.9Zm11.1 33.1h11V166h-11Zm13-46.5h7.2V166h-7.2Zm10.8-3.2h11.3V166h-11.3Zm13.6 2.4h12.6v69h-12.6Zm3.5-8h5.6v9h-5.6Zm13 22.7h9.6V166h-9.6Zm2.2-6.3h5.3v7.3h-5.3Z" opacity=".7"/><path fill="#b57a9f" d="M268 131.3h10.2V166H268Zm1.7-3.9h6.8v4.9h-6.8Zm3-4.2h.8v8.2h-.8Zm8 22.8H294v20h-13.3Zm14.5-31.2h9.7V166h-9.7Zm11.1 29.7h8.7V166h-8.7Zm11.4-13.7h12.4V166h-12.4Zm14.3-17.1h11.7V166H332Zm5.5-12.6h.8v12.6h-.8Zm8 34.8h8.5V166h-8.5Zm12.2 11.4h13.2V166h-13.2Z" opacity=".8"/><circle cx="236" cy="114" r="62" fill="url(#mtowerplaza-glow4)"/><path fill="#5f3f7e" d="m225.9 164.3.8-5.8.7-5.8.8-5.8.7-5.9.7-5.8.6-5.7.6-5.9.6-5.8.4-5.8.3-5.8.2-5.8v-5.8l-.2-5.8-.3-5.8-.4-5.8-.6-5.8-.6-5.7-.6-5.8-.7-5.8-.7-5.8 15.6-.1-.7 5.8-.7 5.8-.6 5.7-.6 5.8-.6 5.8-.4 5.8-.3 5.8-.2 5.8v5.7l.2 5.8.3 5.8.4 5.7.6 5.8.6 5.8.6 5.8.7 5.8.7 5.7.8 5.8.7 5.7.8 5.8Z" opacity=".7"/><path fill="#4f3a78" d="M233 50.2h6V164h-6Z" opacity=".9"/><path fill="none" stroke="#b980a8" stroke-width=".5" d="m241.1 163-2.5-114.5m4.9 114.7-7.3-114.6m-9.4 116 11.5-116.7M226 164.4l14.5-116.5m-14.3 116.2 16-116.1m-14.9 115.8 16.1-115.7m-14.1 115.4 14.5-115.3m-11.9 115.1 11.6-115M235 163.1l7.4-114.7M238.1 163l2.6-114.5" opacity=".6"/><path fill="none" stroke="url(#mtowerplaza-lat)" stroke-width=".8" d="M245.2 163.4 233.7 48.6m12.3 115L231.5 48.5m14.3 115.4-16-115.4m14.9 115.7L228.6 48.4m14.1 116.1L228.2 48.3m11.9 116.4L228.5 48.2m8.5 116.7-7.4-116.8m4.3 116.9-2.6-117m-.4 117 2.5-117.1m-4.9 116.9 7.3-116.9"/><path fill="none" stroke="url(#mtowerplaza-lat)" stroke-width=".7" d="m243.5 155.9-1.5.3-1.9.1-2.2.2h-2.4l-2.3.1-2.1-.1h-1.8l-1.3-.2-.8-.1-.2-.2.5-.3m15.9-8.2-1 .2-1.4.1-1.8.2-2 .1-2.1.1h-2l-1.8-.1h-1.5l-1.1-.2-.5-.1-.1-.2m14.1-8.3-1 .1-1.3.1-1.6.2h-1.8l-1.8.1h-3.2l-1.2-.1-.8-.1-.4-.2.1-.1m11.9-8.3-1 .1-1.3.1-1.4.1-1.6.1h-4.1l-1-.1-.5-.1-.2-.1.3-.1m10.3-8.3-.7.1-1 .1h-1.1l-1.3.1h-1.4l-1.2.1-1.2-.1h-.9l-.6-.1-.3-.1.1-.1m8.5-8.3-.7.1-1 .1h-1.1l-1.1.1h-3l-.6-.1h-.3l-.1-.1.3-.1m7.3-8.2h-.7l-.9.1h-1l-1 .1h-1.8l-.8-.1h-.8v-.1l.2-.1m6.5-8.2h-.7l-.8.1h-1.9l-.9.1-.8-.1h-1.4v-.1l.2-.1m6.9-8.2h-.6l-.7.1h-.9l-1 .1h-2.8l-.7-.1h-.6v-.1m7.1-8.2h-.9l-1 .1h-4.9l-.6-.1h-.2l.1-.1m8.1 0-.6.1m-.2-8.2H238l-1.3.1H233l-.9-.1h-.7l-.4-.1m9.7 0h-.7l-.9.1m-.2-8.2h-7.1l-.9-.1h-.6l-.2-.1m11.6 0-.6.1h-1l-1.2.1m-.2-8.2H232l-1.3-.1h-.9l-.5-.1-.1-.1m13.2.1h-.9l-1.2.1-1.6.1"/><path fill="none" stroke="url(#mtowerplaza-lat)" stroke-width=".8" d="m225.9 164.3.8-5.8.7-5.8.8-5.8.7-5.9.7-5.8.6-5.7.6-5.9.6-5.8.4-5.8.3-5.8.2-5.8v-5.8l-.2-5.8-.3-5.8-.4-5.8-.6-5.8-.6-5.7-.6-5.8-.7-5.8-.7-5.8 15.6-.1-.7 5.8-.7 5.8-.6 5.7-.6 5.8-.6 5.8-.4 5.8-.3 5.8-.2 5.8v5.7l.2 5.8.3 5.8.4 5.7.6 5.8.6 5.8.6 5.8.7 5.8.7 5.7.8 5.8.7 5.7.8 5.8Z"/><path fill="#ffe3c8" d="M228.2 46.2h15.6v2.4h-15.6Z"/><path fill="#7a5a8e" d="m233 46.4 2.4-35.4h1.2l2.4 35.4Z"/><path fill="#ffe3c8" d="M233.6 35.2h4.8v.9h-4.8Zm0-11.2h4.8v.9h-4.8Z"/><circle cx="236" cy="10" r="1" fill="#ff5b6b"/><path fill="#5a5a6e" d="M181 158a15 8 0 1 0 30 0 15 8 0 1 0-30 0m20-2a13 9 0 1 0 26 0 13 9 0 1 0-26 0m47 0a14 9 0 1 0 28 0 14 9 0 1 0-28 0m18 2a14 8 0 1 0 28 0 14 8 0 1 0-28 0"/><path fill="#8f8f62" d="M182 156a12 6 0 1 0 24 0 12 6 0 1 0-24 0m69-2a11 6.5 0 1 0 22 0 11 6.5 0 1 0-22 0m17 2a10 5.5 0 1 0 20 0 10 5.5 0 1 0-20 0"/><path fill="#d79cae" d="m174 165 16-7h92l16 7Z"/><path fill="#f0bcc0" d="m174 165 16-7h10l-10 7Z"/><path fill="#8a5a86" d="M174 163.4h124v1.6H174Z" opacity=".6"/></g></defs><use href="#mtowerplaza-back"/><path fill="url(#mtowerplaza-pool)" d="M0 164h360v58H0z"/><clipPath id="mtowerplaza-pc"><path d="M0 164h360v58H0z"/></clipPath><g clip-path="url(#mtowerplaza-pc)" opacity=".9"><use href="#mtowerplaza-back" transform="matrix(1 0 0 -.8 0 295.2)"/></g><path fill="url(#mtowerplaza-pov)" d="M0 164h360v58H0z"/><path stroke="#fff0c8" stroke-width=".9" d="M138.3 170.2h2.6m-18.2 13.5h5.8m-5.8-9.1h9.4m-12.2 10.2h13.8m2.4-4.1h9m-27.3 9.2h6.4m0-1.1h11.4m28.9-12.2h6.5m-23.9-2.4h4.4m2.7 6.7h15.5m-10.4-3.8h5m-10.2 12.7h5.3m-35.9-2.4h14.9m-16.4-1.5h15.4m-18.7-3.1h6.7m11.3-6.1h6.3m17.5 6.2h15.2m-27.2 6.6h22m-21.6-13.4h4.5m-34.7 4.8h11.9m14.3-7h10.4m-18 10h5.2m19.4 4.3h15.3m-20.4-14.3h6.4m-21.2 5h12.2m13.5-6.5h2.9" opacity=".8"/><path stroke="#ffe3cc" stroke-width=".9" d="M227.7 173.9h2.4m9.7 19.7h8.2m-1.6-19.2h3.9m-5.4 10.1h9.7m-10.4-3.6h1.9m-2.5-5.9h1.5m1.6 17.2H258m-36.7-15.4h2.1m-1.9 18.7h4.4m-7.2-23h1.5m7.5 8h3m14.2 13.8h4.8m-15-4.6h8m-20.6.8h8.4m.2-10.6h3.4m-17.6 15.8h7.9m5.5-12.3h8.3m-19.7 5.5h3.4m5.5-1h2.9m-12.6-6.7h3.3m19.2-9h5.3m2.6 22.6h8.4m-24.2-2.1h9.3m-12-8.5h4m12.8 5.1h4.5m-6.8-5.1h6.9m-25.9 3.3h3.7m22.8-15.5h1.3m-12 14.2h10.5m-4.2-6.6h8m-27.1 3.4h2.7m-11.6-7h3.5m-2.9 13.1h11.6m-.2 1.6h8.4" opacity=".6"/><path stroke="#ffd7c0" stroke-width=".9" d="M285.9 197.7h16.5m12-15.3h12.7m-97.7 32.9h10.5m100.6-15.2h14.7m-21.8-4.6H346m-240.1 5.6h10.9m99.3-7.3h5.3m76.1 12.5H312m-76.6 10h19.7m96-42.2h3.5m-35.1 8.7h6.6M111.8 207h8.1M-1.2 180.6h7m131.1 14.7h10M9.6 177.6h4.5m175.6 35.8h23.5m-172.4-39h4.6m51.5 10.1h4.5m131.1-5.9h5.7m-115.4 13.2H135m-33.6 4.2h18.9m12.3-24.3h7.8m169.8 36.9h8m-162.4-39.8h7.8m80.8 15.6h16.7m-45.2-7.9h9.1m-10.1-6.8h3.4m-73.9 36.2h15.2M311 194.4h9M-1.8 218h18.3m92.1-29.4h16.8m128.3-15.1h4.9m-39.4 26.8h10.5m56.3 7.3h26.5m11.9-17h17.5m-142.5 22.6h23.5m-7.7-18.6h19.6M28.1 205.5h10.1m162.3-23.4h11.6m127.1-3.8h5.6" opacity=".2"/><path stroke="#3f2f66" stroke-width=".9" d="M298 204.1h11.1m-187.4 14h19.2m-37.1 2h12.8m-64-32.5h6.3m216.2 6.8h8.8M18.8 212.6h6.6m272.5-18.9h8.1m-103.4 20.7h18.7m-112.6-6.2h8.6m97.5-16.4h7.5m-74.3 14h9.3m46.7-12.4h10.3M92.9 212.5h16.3m214.9-24.1h4.9m-55 25.7h11.2M26.5 197h11.9M142 212.2h18.5m-64.2-10.6h5.6" opacity=".2"/><path stroke="#ffb078" stroke-width=".9" d="M85.9 210.1h7.5m19.7 6.9h5.4m-31.7-6.5h7.6m-53.2 7.9h5.6m39.6-4.6h7.3M-2.4 206h7.5m-4.9 7.9h5.6m20.9-1h2.9m-11.3-7.8H21m-13.4-5.5h4.8m95.8 1.9h1.9m2.6 8.5h7.9m-76.3-1.1h4.8m64.4-5.1h4.8m-15.2 5.3h7.2m-48.8 7.2h8.6" opacity=".6"/><path stroke="#ffb078" stroke-width=".9" d="M354.8 199.9h6.4m-12 14.1h9m-37.4-22h3.1m11.3 17.5h5.5m7.9-4.5h5.6m-6.8 10.6h5.9m-40.1-2.3h5.9m13.9-9.4h6.4" opacity=".5"/><path fill="#ffd8bc" d="m172 133.7-23 .8-23 2-23 2.8-23 3.5-23 4.3-23 4.8-23 5.5-23 6.1v4.9l23-6.3 23-5.7 23-5.2 23-4.5 23-3.8 23-3 23-2.2 23-1.1Z"/><path fill="#58405e" d="m172 136.6-23 1.1-23 2.2-23 3-23 3.8-23 4.5-23 5.2-23 5.7-23 6.3v15.2l23-7.1 23-6.6 23-5.9 23-5.2 23-4.6 23-3.8 23-3 23-1.9Z"/><path fill="#f2bba6" d="m172 145.5-23 1.9-23 3-23 3.8-23 4.6-23 5.2-23 5.9-23 6.6-23 7.1v4.2l23-7.3 23-6.8 23-6.1 23-5.5 23-4.8 23-4 23-3.2 23-2.1Z"/><path fill="#35264a" d="m172 148-23 2.1-23 3.2-23 4-23 4.8-23 5.5-23 6.1-23 6.8-23 7.3v2.7l23-7.4 23-6.9 23-6.3 23-5.6 23-4.9 23-4.2 23-3.4 23-2.2Z" opacity=".6"/><path fill="#5e4062" d="m172 149.6-23 2.2-23 3.4-23 4.2-23 4.9-23 5.6-23 6.3-23 6.9-23 7.4v21.9l23-8.5 23-8 23-7.4 23-6.8 23-6.1 23-5.3 23-4.4 23-3.4Z"/><path fill="#e6a897" d="m172 162.5-23 3.4-23 4.4-23 5.3-23 6.1-23 6.8-23 7.4-23 8-23 8.5v3.4l23-8.7 23-8.2 23-7.6 23-6.9 23-6.2 23-5.5 23-4.7 23-3.5Z"/><path fill="#ffcf96" d="M170.2 138.4h3.6v5.6h-3.6Zm-6.2.2h3.7v5.7H164Zm-6.4.3h3.8v5.9h-3.8Zm-6.6.5h3.9v6H151Zm-6.7.5h4v6.1h-4Zm-6.8.6h4v6.3h-4Zm-7 .8h4.1v6.4h-4.1Zm-7.2.8h4.2v6.6h-4.2Zm-7.4.9h4.3v6.7h-4.3Zm-7.5 1.1h4.4v6.9h-4.4Zm-7.7 1.1h4.5v7.1h-4.5Zm-7.9 1.3h4.7v7.2h-4.7Zm-8 1.4h4.8v7.4h-4.8Zm-8.3 1.5h4.9v7.6h-4.9Zm-8.4 1.6h5v7.8h-5Zm-8.7 1.8h5.1v7.9h-5.1Zm-8.9 1.9h5.2v8.1h-5.2Zm-9 2h5.4v8.3h-5.4Zm-9.3 2.2h5.5v8.5h-5.5Zm-9.5 2.3h5.6v8.7h-5.6Zm-9.7 2.5h5.7v8.9H13Zm-10 2.7h5.9v9.1H3Zm-10.1 2.8h6v9.4h-6Zm-8 2.3H-9v9.5h-6.1Z" opacity=".9"/><path fill="#ffb078" d="M170.2 151h3.6v9.5h-3.6Zm-6.2.5h3.7v9.7H164Zm-6.4.6h3.8v10h-3.8Zm-6.6.8h3.9v10.2H151Zm-6.7.8h4v10.4h-4Zm-6.8 1h4v10.7h-4Zm-7 1h4.1v10.9h-4.1Zm-7.2 1.2h4.2v11.2h-4.2Zm-7.4 1.3h4.3v11.4h-4.3Zm-7.5 1.4h4.4v11.7h-4.4Zm-7.7 1.5h4.5v12h-4.5Zm-7.9 1.7h4.7v12.3h-4.7Zm-8 1.7h4.8v12.6h-4.8Zm-8.3 1.9h4.9v12.9h-4.9Zm-8.4 2.1h5v13.2h-5Zm-8.7 2.1h5.1v13.5h-5.1Zm-8.9 2.4h5.2v13.8h-5.2Zm-9 2.4h5.4v14.1h-5.4Zm-9.3 2.6h5.5v14.5h-5.5Zm-9.5 2.8h5.6v14.8h-5.6Zm-9.7 3h5.7v15.1H13Zm-10 3.1h5.9v15.5H3Zm-10.1 3.3h6v15.9h-6Zm-8 2.7H-9V209h-6.1Z" opacity=".9"/><path fill="none" stroke="#f4c7b4" stroke-width=".6" d="M175.6 136.6v8.9m0 4.1v12.9m-6.1-25.7v9.1m0 4.2v13.2m-6.3-26.3v9.3m0 4.4v13.5m-6.4-26.8v9.5m0 4.5v13.8m-6.5-27.3v9.8m0 4.5v14.2m-6.8-27.9v10m0 4.6v14.5m-6.8-28.4v10.2m0 4.7v14.8m-7.1-28.9v10.5m0 4.8v15.2m-7.2-29.6v10.7m0 4.9V172m-7.3-30.2v11m0 5.1v15.9m-7.6-30.9v11.2m0 5.3v16.3m-7.7-31.5v11.5m0 5.3v16.7m-7.9-32.2v11.8m0 5.4v17.1m-8.1-32.9V159m0 5.5V182m-8.3-33.5v12.3m0 5.7v17.9m-8.4-34.2v12.6m0 5.8v18.3M58.4 152v12.9m0 6v18.7M49.5 154v13.2m0 6.1v19.2m-9.1-36.4v13.5m0 6.3v19.6m-9.3-37.1v13.9m0 6.4v20.1m-9.5-38V175m0 6.6v20.6m-9.8-38.8v14.5m0 6.7v21m-9.9-39.4v14.9m0 6.8v21.5m-7.8-41v15.1m0 7v21.9" opacity=".6"/><path fill="#4c5a55" d="M165.6 131.5a6.4 4.4 0 1 0 12.8 0 6.4 4.4 0 1 0-12.8 0m-47.1 2.4a7.5 5.2 0 1 0 15 0 7.5 5.2 0 1 0-15 0m-47.1 6a8.6 5.9 0 1 0 17.3 0 8.6 5.9 0 1 0-17.3 0m-47.2 8.7a9.8 6.7 0 1 0 19.5 0 9.8 6.7 0 1 0-19.5 0"/><path fill="#8f8f5c" d="M165.6 130.3a5.2 3.4 0 1 0 10.4 0 5.2 3.4 0 1 0-10.4 0m-47.1 2.2a6.1 4 0 1 0 12.2 0 6.1 4 0 1 0-12.2 0m-47.1 5.7a7 4.6 0 1 0 14 0 7 4.6 0 1 0-14 0m-47.2 8.6a7.9 5.2 0 1 0 15.9 0 7.9 5.2 0 1 0-15.9 0"/><path fill="#e9b3a6" d="m298 134.7 9.2.6 9.3 1.4 9.3 2.1 9.2 2.6 9.2 3.1 9.3 3.5 9.3 4 9.2 4.5v4.9l-9.2-4.7-9.3-4.2-9.3-3.9-9.2-3.3-9.2-2.9-9.3-2.3-9.3-1.6-9.2-.9Z"/><path fill="#58405e" d="m298 137.6 9.2.9 9.3 1.6 9.3 2.3 9.2 2.9 9.2 3.3 9.3 3.9 9.3 4.2 9.2 4.7v15.2l-9.2-5.5-9.3-5.1-9.3-4.6-9.2-4.1-9.2-3.6-9.3-3.1-9.3-2.5-9.2-1.6Z"/><path fill="#d79d98" d="m298 146.5 9.2 1.6 9.3 2.5 9.3 3.1 9.2 3.6 9.2 4.1 9.3 4.6 9.3 5.1 9.2 5.5v4.2l-9.2-5.7-9.3-5.3-9.3-4.8-9.2-4.3-9.2-3.9-9.3-3.3-9.3-2.6-9.2-1.9Z"/><path fill="#35264a" d="m298 149 9.2 1.9 9.3 2.6 9.3 3.3 9.2 3.9 9.2 4.3 9.3 4.8 9.3 5.3 9.2 5.7v2.7l-9.2-5.8-9.3-5.4-9.3-5-9.2-4.5-9.2-4-9.3-3.4-9.3-2.8-9.2-2Z" opacity=".6"/><path fill="#5e4062" d="m298 150.6 9.2 2 9.3 2.8 9.3 3.4 9.2 4 9.2 4.5 9.3 5 9.3 5.4 9.2 5.8v21.9l-9.2-6.9-9.3-6.5-9.3-6.1-9.2-5.7-9.2-5.1-9.3-4.5-9.3-4-9.2-3.1Z"/><path fill="#c78a90" d="m298 163.5 9.2 3.1 9.3 4 9.3 4.5 9.2 5.1 9.2 5.7 9.3 6.1 9.3 6.5 9.2 6.9v3.4l-9.2-7.1-9.3-6.7-9.3-6.3-9.2-5.8-9.2-5.2-9.3-4.8-9.3-4.1-9.2-3.3Z"/><path fill="#ffcf96" d="M296.2 139.4h3.6v5.6h-3.6Zm6.1.6h3.8v5.9h-3.8Zm6.4 1h4v6.3h-4Zm6.9 1.5h4.3v6.6h-4.3Zm7.2 2h4.5v7h-4.5Zm7.7 2.5h4.8v7.4h-4.8Zm8.1 3h5.1v7.9h-5.1Zm8.5 3.6h5.4v8.3h-5.4Zm9.1 4.2h5.7v8.8h-5.7Zm9.6 5h6v9.4h-6Zm3.1 1.7h6.1v9.5h-6.1Z" opacity=".9"/><path fill="#ffb078" d="M296.2 152h3.6v9.5h-3.6Zm6.1 1.3h3.8v10.1h-3.8Zm6.4 1.9h4v10.6h-4Zm6.9 2.3h4.3v11.3h-4.3Zm7.2 2.8h4.5v11.9h-4.5Zm7.7 3.4h4.8v12.6h-4.8Zm8.1 4h5.1v13.4h-5.1Zm8.5 4.6h5.4v14.2h-5.4Zm9.1 5.4h5.7v15h-5.7Zm9.6 6.1h6v15.9h-6Zm3.1 2.1h6.1V202h-6.1Z" opacity=".9"/><path fill="none" stroke="#f4c7b4" stroke-width=".6" d="M301.6 137.6v8.9m0 4.1v12.9m6.4-25.4v9.4m0 4.3v13.7m6.8-26.5v10m0 4.6v14.5m7.2-27.7V151m0 4.8v15.3m7.6-28.9v11.2m0 5.2v16.2m8-30.2v11.8m0 5.5v17.2m8.6-31.7v12.5m0 5.8v18.2m9-33v13.3m0 6.1v19.2m9.5-34.5v14m0 6.5v20.4m10.2-36.1v14.9m0 6.8V203m3.2-41.6v15.1m0 7v21.9" opacity=".6"/><path fill="#4c5a55" d="M291.6 132.5a6.4 4.4 0 1 0 12.8 0 6.4 4.4 0 1 0-12.8 0m8.7.4a7 4.8 0 1 0 13.9 0 7 4.8 0 1 0-13.9 0m8.7 1.2a7.5 5.2 0 1 0 15 0 7.5 5.2 0 1 0-15 0m8.7 1.9a8.1 5.6 0 1 0 16.2 0 8.1 5.6 0 1 0-16.2 0m8.7 2.4a8.6 5.9 0 1 0 17.3 0 8.6 5.9 0 1 0-17.3 0m8.7 2.9a9.2 6.3 0 1 0 18.4 0 9.2 6.3 0 1 0-18.4 0m8.6 3.4a9.8 6.7 0 1 0 19.5 0 9.8 6.7 0 1 0-19.5 0m8.7 3.8a10.3 7.1 0 1 0 20.6 0 10.3 7.1 0 1 0-20.6 0"/><path fill="#8f8f5c" d="M291.6 131.3a5.2 3.4 0 1 0 10.4 0 5.2 3.4 0 1 0-10.4 0m8.7.3a5.7 3.7 0 1 0 11.3 0 5.7 3.7 0 1 0-11.3 0m8.7 1.1a6.1 4 0 1 0 12.2 0 6.1 4 0 1 0-12.2 0m8.7 1.8a6.6 4.3 0 1 0 13.1 0 6.6 4.3 0 1 0-13.1 0m8.7 2.3a7 4.6 0 1 0 14 0 7 4.6 0 1 0-14 0m8.6 2.8a7.5 4.9 0 1 0 15 0 7.5 4.9 0 1 0-15 0m8.7 3.2a7.9 5.2 0 1 0 15.9 0 7.9 5.2 0 1 0-15.9 0m8.7 3.8a8.4 5.5 0 1 0 16.8 0 8.4 5.5 0 1 0-16.8 0"/><path fill="#3a2a4e" d="M29.1 144.9a.8.9 0 1 0 1.7 0 .8.9 0 1 0-1.7 0m-.2 1.1q1.1-.6 2.2 0l.2 2.8h-.5v3.2h-.6l-.2-2.8-.2 2.8h-.6v-3.2h-.5Zm22.4-4.2a.7.8 0 1 0 1.5 0 .7.8 0 1 0-1.5 0m1.6 1q-.9-.6-1.8 0l-.1 2.4h.4l-.8 2.8h.5l.9-2.2.9 2.2h.5l-.8-2.8h.4Zm32.5-6.1a.6.7 0 1 0 1.3 0 .6.7 0 1 0-1.3 0m-.2.8q.8-.4 1.6 0l.2 2.1h-.4v2.4h-.4l-.2-2.1-.2 2.1h-.4v-2.4H85Zm32.3-4.4a.5.6 0 1 0 1.1 0 .5.6 0 1 0-1.1 0m-.2.7q.7-.4 1.4 0l.1 1.7h-.4l.6 2h-.4l-.6-1.6-.6 1.6h-.4l.6-2h-.4Z"/><path fill="#4a3358" d="M-5 222q185-4 370 0v23H-5Z"/><path fill="#ffc29f" d="M-5 222q185-4 370 0v2.2q-185-4-370 0Z"/><path fill="#6d4a72" d="M-5 228q185-4 370 0v1.2q-185-4-370 0Z" opacity=".7"/><path fill="#2e2a46" d="M-16 232a30 14 0 1 0 60 0 30 14 0 1 0-60 0m36 6a24 10 0 1 0 48 0 24 10 0 1 0-48 0"/><path fill="#4c5a55" d="M-14 228a24 9 0 1 0 48 0 24 9 0 1 0-48 0m36 6a18 6 0 1 0 36 0 18 6 0 1 0-36 0" opacity=".7"/><path fill="#2e2a46" d="M330 234a26 12 0 1 0 52 0 26 12 0 1 0-52 0m-16 6a20 8 0 1 0 40 0 20 8 0 1 0-40 0"/><circle cx="288" cy="168" r="20" fill="url(#mtowerplaza-glow8)"/><path fill="#34264a" d="M287.2 172h1.6v52h-1.6Zm-2.7 0h7l-1.6-4h-3.8Z"/><circle cx="288" cy="170" r="2" fill="#ffe8bc"/><path fill="#2a1f3e" d="M94.4 236h3.2l17.4 7-4 .5Zm12 1.5h3.2l17.4 7-4 .5Zm68-2h3.2l17.4 7-4 .5Zm124 .5h3.2l17.4 7-4 .5Zm12 1h3.2l17.4 7-4 .5Zm-98 1h3.2l17.4 7-4 .5Z" opacity=".5"/><path fill="#241a38" d="M94.2 220.9a1.8 1.9 0 1 0 3.6 0 1.8 1.9 0 1 0-3.6 0m-.5 2.3q2.3-1.2 4.6 0l.5 5.9h-1.1l-.1 6.9h-1.2l-.4-5.8-.4 5.8h-1.2l-.1-6.9h-1.1Zm4.2.7 3.2-1.3.4.9-3.2 1.7Zm3.1-2.6h1.7v2.5H101Zm5.3 2.2a1.7 1.8 0 1 0 3.4 0 1.7 1.8 0 1 0-3.4 0m-.5 2.2q2.2-1.2 4.4 0l.4 5.4h-1l-.1 6.4h-1.1l-.4-5.4-.4 5.4h-1.1l-.1-6.4h-1Zm68.6-3.5a1.6 1.7 0 1 0 3.2 0 1.6 1.7 0 1 0-3.2 0m3.6 2q-2-1.1-4 0l-.2 5.2.9.1-1.7 6h1.1l1.9-4.7 1.9 4.7h1.1l-1.7-6 .9-.1Zm120.3-2.8a1.7 1.8 0 1 0 3.5 0 1.7 1.8 0 1 0-3.5 0m4 2.3q-2.3-1.2-4.6 0l-.4 5.6h1.1l.1 6.7h1.1l.4-5.6.4 5.6h1.1l.1-6.7h1.1Zm8.1 0a1.6 1.7 0 1 0 3.2 0 1.6 1.7 0 1 0-3.2 0m-.4 2.1q2-1.2 4 0l.2 5.1-.9.1 1.7 6h-1.1l-1.9-4.7-1.9 4.7H309l1.7-6-.9-.1Zm-97.7-2a1.7 1.8 0 1 0 3.4 0 1.7 1.8 0 1 0-3.4 0m3.9 2.2q-2.2-1.2-4.4 0l-.4 5.5h1l.1 6.5h1.1l.4-5.5.4 5.5h1.1l.1-6.5h1Zm-4 .6-3-1.2-.4.8 3 1.6Zm-4.5-2.4h1.6v2.4h-1.6Z"/><path fill="url(#mtowerplaza-vig)" d="M0 0h360v240H0z"/><path d="M0 0h360v240H0z" filter="url(#mtowerplaza-gr)" opacity=".2" style="mix-blend-mode:overlay"/></svg>