<svg xmlns="http://www.w3.org/2000/svg" preserveAspectRatio="xMidYMid slice" viewBox="0 0 360 240"><defs><linearGradient id="nanxin-wall" x1="0" x2="0" y1="0" y2="1"><stop offset="0" stop-color="#d9b98a"/><stop offset="1" stop-color="#efd6a6"/></linearGradient><linearGradient id="nanxin-out" x1="0" x2="0" y1="0" y2="1"><stop offset="0" stop-color="#fff1cf"/><stop offset="1" stop-color="#f6cf8f"/></linearGradient><linearGradient id="nanxin-tb" x1="0" x2="0" y1="0" y2="1"><stop offset="0" stop-color="#a86c44"/><stop offset=".1" stop-color="#8a5534"/><stop offset="1" stop-color="#5a3220"/></linearGradient><linearGradient id="nanxin-sun" x1="0" x2="0" y1="0" y2="1"><stop offset="0" stop-color="#ffd99a" stop-opacity=".8"/><stop offset="1" stop-color="#ffd99a" stop-opacity=".2"/></linearGradient><linearGradient id="nanxin-bw" x1="0" x2="1" y1="0" y2="0"><stop offset="0" stop-color="#fbf6ec"/><stop offset=".4" stop-color="#f1e9dc"/><stop offset=".4" stop-color="#d9cfbf"/><stop offset="1" stop-color="#b9ad9b"/></linearGradient><radialGradient id="nanxin-glow1" cx="96" cy="64" r="200" gradientUnits="userSpaceOnUse"><stop offset="0" stop-color="#fff0c8" stop-opacity=".6"/><stop offset=".4" stop-color="#fff0c8" stop-opacity=".2"/><stop offset="1" stop-color="#fff0c8" stop-opacity="0"/></radialGradient><radialGradient id="nanxin-glow8" cx="80" cy="60" r="120" gradientUnits="userSpaceOnUse"><stop offset="0" stop-color="#fff3d0" stop-opacity=".3"/><stop offset=".4" stop-color="#fff3d0" stop-opacity=".1"/><stop offset="1" stop-color="#fff3d0" stop-opacity="0"/></radialGradient><radialGradient id="nanxin-vig" cx=".5" cy=".5" r=".8"><stop offset=".6" stop-opacity="0"/><stop offset="1" stop-opacity=".4"/></radialGradient><filter id="nanxin-st" width="200%" height="200%" x="-50%" y="-50%"><feGaussianBlur stdDeviation="2"/></filter><filter id="nanxin-gr" width="100%" height="100%" x="0" y="0"><feTurbulence baseFrequency=".8" numOctaves="2" seed="3" stitchTiles="stitch" type="fractalNoise"/><feColorMatrix values="0 0 0 0 .5 0 0 0 0 .5 0 0 0 0 .5 0 0 0 1.6 -.55"/></filter><clipPath id="nanxin-win"><path d="M22 12h150v84H22z"/></clipPath></defs><path fill="url(#nanxin-wall)" d="M0 0h360v132H0z"/><circle cx="96" cy="64" r="200" fill="url(#nanxin-glow1)"/><path fill="#6f9c8a" d="M0 96h360v36H0Z"/><path fill="#557f70" d="M0 96h.9v36H0Zm9 0h.9v36H9Zm9 0h.9v36H18Zm9 0h.9v36H27Zm9 0h.9v36H36Zm9 0h.9v36H45Zm9 0h.9v36H54Zm9 0h.9v36H63Zm9 0h.9v36H72Zm9 0h.9v36H81Zm9 0h.9v36H90Zm9 0h.9v36H99Zm9 0h.9v36h-.9Zm9 0h.9v36h-.9Zm9 0h.9v36h-.9Zm9 0h.9v36h-.9Zm9 0h.9v36h-.9Zm9 0h.9v36h-.9Zm9 0h.9v36h-.9Zm9 0h.9v36h-.9Zm9 0h.9v36h-.9Zm9 0h.9v36h-.9Zm9 0h.9v36h-.9Zm9 0h.9v36h-.9Zm9 0h.9v36h-.9Zm9 0h.9v36h-.9Zm9 0h.9v36h-.9Zm9 0h.9v36h-.9Zm9 0h.9v36h-.9Zm9 0h.9v36h-.9Zm9 0h.9v36h-.9Zm9 0h.9v36h-.9Zm9 0h.9v36h-.9Zm9 0h.9v36h-.9Zm9 0h.9v36h-.9Zm9 0h.9v36h-.9Zm9 0h.9v36h-.9Zm9 0h.9v36h-.9Zm9 0h.9v36h-.9Zm9 0h.9v36h-.9ZM0 105h360v.9H0Zm0 9h360v.9H0Zm0 9h360v.9H0Z" opacity=".7"/><path fill="#4f7a6c" d="M0 94h360v3H0Z"/><path fill="#b8d8c5" d="M1.2 98h2.4v6H1.2Zm9 0h2.4v6h-2.4Zm9 0h2.4v6h-2.4Zm9 0h2.4v6h-2.4Zm9 0h2.4v6h-2.4Zm9 0h2.4v6h-2.4Zm9 0h2.4v6h-2.4Zm9 0h2.4v6h-2.4Zm9 0h2.4v6h-2.4Zm9 0h2.4v6h-2.4Zm9 0h2.4v6h-2.4Zm9 0h2.4v6h-2.4Zm9 0h2.4v6h-2.4Zm9 0h2.4v6h-2.4Zm9 0h2.4v6h-2.4Zm9 0h2.4v6h-2.4Zm9 0h2.4v6h-2.4Zm9 0h2.4v6h-2.4Zm9 0h2.4v6h-2.4Zm9 0h2.4v6h-2.4Zm9 0h2.4v6h-2.4Zm9 0h2.4v6h-2.4Zm9 0h2.4v6h-2.4Z" opacity=".5"/><g clip-path="url(#nanxin-win)"><path fill="url(#nanxin-out)" d="M22 12h150v84H22z"/><path fill="#f0c48a" d="M22 34h24v62H22Zm27 0h24v62H49Zm27 0h24v62H76Zm27 0h24v62h-24Zm27 0h24v62h-24Zm27 0h24v62h-24Z" opacity=".8"/><path fill="#dea06a" d="M27 40h5v8h-5Zm9 0h5v8h-5Zm18 0h5v8h-5Zm9 0h5v8h-5Zm18 0h5v8h-5Zm9 0h5v8h-5Zm18 0h5v8h-5Zm9 0h5v8h-5Zm18 0h5v8h-5Zm9 0h5v8h-5Zm18 0h5v8h-5Zm9 0h5v8h-5Z" opacity=".6"/><path fill="#c98b5c" fill-rule="evenodd" d="M22 62h150v34H22Zm8 34V76a13 12 0 0 1 26 0v20Zm38 0V76a13 12 0 0 1 26 0v20Zm38 0V76a13 12 0 0 1 26 0v20Zm38 0V76a13 12 0 0 1 26 0v20Z"/><path fill="#a86d48" d="M25 62h5v34h-5Zm38 0h5v34h-5Zm38 0h5v34h-5Zm38 0h5v34h-5Zm38 0h5v34h-5Z"/><path fill="#e7b67c" d="M22 60h150v3H22Z"/><path fill="#8a5a44" d="M61.7 76.5a2.3 2.5 0 1 0 4.7 0 2.3 2.5 0 1 0-4.7 0m-.6 3q2.9-1.7 5.8 0l.4 7.6-1.4.1 2.5 8.8h-1.6L64 89.1 61.2 96h-1.6l2.5-8.8-1.4-.1Zm54.7-2.1a2.2 2.4 0 1 0 4.5 0 2.2 2.4 0 1 0-4.5 0m-.7 2.8q2.9-1.5 5.8 0l.5 7.3h-1.3L120 96h-1.5l-.5-7.2-.5 7.2H116l-.1-8.5h-1.3Zm8.8-2a2.1 2.2 0 1 0 4.2 0 2.1 2.2 0 1 0-4.2 0m4.7 2.8q-2.6-1.5-5.2 0l-.4 6.9 1.2.1-2.2 8h1.5l2.5-6.2 2.5 6.2h1.5l-2.2-8 1.2-.1Zm23.1-4.1a2.3 2.4 0 1 0 4.6 0 2.3 2.4 0 1 0-4.6 0m-.5 3q2.8-1.6 5.6 0l.4 7.4-1.3.1 2.4 8.6h-1.6l-2.7-6.7-2.7 6.7h-1.6l2.4-8.6-1.3-.1Z" opacity=".8"/><path fill="#fff3d6" d="M22 12h150v84H22Z" opacity=".2"/></g><path fill="#2f5a4f" fill-rule="evenodd" d="M17 7h160v94H17Zm5 5h150v84H22Z"/><path fill="#2f5a4f" d="M95 12h4v84h-4ZM22 40h150v3H22Z"/><path fill="#244840" d="M17 99h160v3H17Z"/><path fill="#6f9c8a" d="M17 7h2v94h-2Z" opacity=".6"/><path fill="#a8805a" d="M276 53a19 19 0 1 0 38 0 19 19 0 1 0-38 0" opacity=".5"/><path fill="#6b3a24" d="M273 50a19 19 0 1 0 38 0 19 19 0 1 0-38 0"/><path fill="#f6ead0" d="M276.5 50a15.5 15.5 0 1 0 31 0 15.5 15.5 0 1 0-31 0"/><path fill="#6b3a24" d="M303.8 49.3h1.4v1.4h-1.4Zm-1.7 6.2h1.4v1.4h-1.4Zm-4.5 4.6h1.4v1.4h-1.4Zm-6.3 1.7h1.4v1.4h-1.4Zm-6.2-1.7h1.4v1.4h-1.4Zm-4.6-4.6h1.4v1.4h-1.4Zm-1.7-6.2h1.4v1.4h-1.4Zm1.7-6.3h1.4v1.4h-1.4Zm4.6-4.5h1.4v1.4h-1.4Zm6.2-1.7h1.4v1.4h-1.4Zm6.3 1.7h1.4v1.4h-1.4Zm4.5 4.5h1.4v1.4h-1.4Z"/><path fill="none" stroke="#3b2418" stroke-linecap="round" stroke-width="1.4" d="m292 50 6-6m-6 6-2 10"/><path fill="#4a2716" d="M311 50a19 19 0 0 1-27 17 17 17 0 0 0 27-17" opacity=".5"/><path fill="url(#nanxin-tb)" d="M0 132h360v108H0Z"/><path fill="#d49a68" d="M0 132h360v2.4H0Z"/><path stroke="#6b3d25" stroke-width=".8" d="M222.3 171.1h24.1M117.7 147h27.9M.2 145.6h26.5m-5.8 36h23.6m-27.1-.8h54.4m250.8-19.4h37.1m-29.4 34h42.2M86.7 144.5h35.1m-19.9 9.3h18.4m69.8 64.5h38.6m-53.1-17h43.2M66.7 146h14.8m7.8 59.3h47.5m-51.5-9.1h45.2m-76.1 20.1h66.9M291 195.1h48.2m-7.3 14.9h41.9m-114.4-58.7h26.4M-.8 154.6h29.7m145.3 49.5h64.1m-12 19.9h48m-135.9-26.9H190m-60.9 23.5h83.2m26.1-16.8h28.4m-8.1-1.7h74.5M225 167.3h31.3" opacity=".5"/><path fill="url(#nanxin-sun)" d="M36 136h136l90 70H92Z"/><path fill="#8a5534" d="M100 136h8l72 70h-10Zm-48 14h138l6 5H58Z" opacity=".8"/><path fill="#3a1f14" d="M56 176a16 3.4 0 1 0 32 0 16 3.4 0 1 0-32 0" opacity=".3"/><path fill="#e9d5b0" d="m50 150 2 25a8 2.4 0 0 0 16 0l2-25Z" opacity=".6"/><path fill="#d9a868" d="m51 158 1 17a8 2.4 0 0 0 16 0l1-17Z" opacity=".6"/><path fill="#f3c983" d="M51 158a9 2.6 0 1 0 18 0 9 2.6 0 1 0-18 0" opacity=".8"/><path fill="#fff6e2" d="M52.5 152h2.4v22h-2.4Z" opacity=".7"/><path fill="none" stroke="#fff3dc" d="M50 150a10 2.8 0 1 0 20 0 10 2.8 0 1 0-20 0Z" opacity=".9"/><path fill="#2e170e" d="M144 214a92 13 0 1 0 184 0 92 13 0 1 0-184 0" opacity=".5"/><path fill="#b3a693" d="M172 203h48v6h-48Zm0 6a24 3 0 1 0 48 0 24 3 0 1 0-48 0"/><path fill="url(#nanxin-bw)" d="M126 150c2 40 34 56 70 56s68-16 70-56Z"/><path fill="none" stroke="#4f78a8" stroke-width="2.4" d="M129 162c9 14 37 18 67 18s58-4 67-18" opacity=".8"/><path fill="none" stroke="#4f78a8" stroke-width=".9" d="M132 167c8 13 34 18 64 18s56-5 64-18" opacity=".7"/><path fill="#fffdf8" d="M134 156c2 24 18 38 32 44-24-6-38-24-38-46Z" opacity=".8"/><path fill="#fbf7ef" d="M126 150a70 23 0 1 0 140 0 70 23 0 1 0-140 0"/><path fill="#d8cdb9" d="M130 151.2a66 20.6 0 1 0 132 0 66 20.6 0 1 0-132 0"/><path fill="#fbf0d4" d="M133 154a63 18 0 1 0 126 0 63 18 0 1 0-126 0"/><path fill="#e8d4ad" d="M133 154a63 18 0 0 1 126 0 63 13 0 0 0-126 0" opacity=".7"/><path fill="none" stroke="#e3c998" stroke-linecap="round" stroke-width="1.1" d="M156 156q4.5-2.4 9 0t9 0m4-8q5.5-2.4 11 0t11 0m2 4q4-2.4 8 0t8 0m4-6q3.5-2.4 7 0t7 0m-70 17q3.5-2.4 7 0t7 0m30-1q2.5-2.4 5 0t5 0m12-5q3-2.4 6 0t6 0" opacity=".8"/><path fill="#fffaf0" d="M162 148a14 3.4 0 1 0 28 0 14 3.4 0 1 0-28 0" opacity=".8"/><path fill="#6e2420" d="M153 158a3 2 0 1 0 6 0 3 2 0 1 0-6 0m6-3a3 2 0 1 0 6 0 3 2 0 1 0-6 0m5 4a3 2 0 1 0 6 0 3 2 0 1 0-6 0m-8 3a3 2 0 1 0 6 0 3 2 0 1 0-6 0m6-10a3 2 0 1 0 6 0 3 2 0 1 0-6 0m6 3a3 2 0 1 0 6 0 3 2 0 1 0-6 0m-17-2a3 2 0 1 0 6 0 3 2 0 1 0-6 0"/><path stroke="#c8645a" stroke-linecap="round" d="M155.2 157.3h0m6-3h0m5 4h0m-8 3h0m6-10h0m6 3h0m-17-2h0" opacity=".9"/><path fill="#c9b48a" d="M201 159a17 4.4 0 1 0 34 0 17 4.4 0 1 0-34 0" opacity=".6"/><path fill="#ded4c3" d="M224 151c16-7 30-19 38-27 4-3 8 1 5 5-9 11-23 23-39 30Z"/><path fill="#fdfaf4" d="M224 151c16-7 30-19 38-27 2-1.4 4-1 4.6 0-10.6 10-24.6 22-40.6 29.5Z"/><path fill="#e2d8c7" d="M199 154a15 7.4 0 1 0 30 0 15 7.4 0 1 0-30 0"/><path fill="#f8f3ea" d="M199.4 153.4a14 6.6 0 1 0 28 0 14 6.6 0 1 0-28 0"/><path fill="#fdf6e6" d="M202.4 154a11.6 5 0 1 0 23.2 0 11.6 5 0 1 0-23.2 0"/><path fill="#f1dcae" d="M202.4 154a11.6 5 0 0 1 23.2 0 11.6 2.6 0 0 0-23.2 0"/><path fill="#fffdf7" d="M206.6 153a4.4 1.3 0 1 0 8.8 0 4.4 1.3 0 1 0-8.8 0"/><g fill="none" stroke="#fff8e8" stroke-linecap="round" stroke-width="3.4" filter="url(#nanxin-st)" opacity=".5"><path d="M176 136c-6-10 6-16 0-26s4-16 1-24m33 48c5-9-4-14 1-23s-2-12 2-18"/></g><circle cx="80" cy="60" r="120" fill="url(#nanxin-glow8)"/><path fill="url(#nanxin-vig)" d="M0 0h360v240H0z"/><path d="M0 0h360v240H0z" filter="url(#nanxin-gr)" opacity=".2" style="mix-blend-mode:overlay"/></svg>