<svg xmlns="http://www.w3.org/2000/svg" preserveAspectRatio="xMidYMid slice" viewBox="0 0 360 240"><defs><radialGradient id="shamian-glow1" cx="0" cy="120" r="210" gradientUnits="userSpaceOnUse"><stop offset="0" stop-color="#ffd88f" stop-opacity=".6"/><stop offset=".4" stop-color="#ffd88f" stop-opacity=".2"/><stop offset="1" stop-color="#ffd88f" stop-opacity="0"/></radialGradient><radialGradient id="shamian-glow3" cx="310" cy="130" r="9" gradientUnits="userSpaceOnUse"><stop offset="0" stop-color="#ffe2a0" stop-opacity=".6"/><stop offset=".4" stop-color="#ffe2a0" stop-opacity=".2"/><stop offset="1" stop-color="#ffe2a0" stop-opacity="0"/></radialGradient><radialGradient id="shamian-vig" cx=".5" cy=".5" r=".8"><stop offset=".6" stop-opacity="0"/><stop offset="1" stop-opacity=".3"/></radialGradient><linearGradient id="shamian-sky" x1="0" x2="0" y1="0" y2="184" gradientUnits="userSpaceOnUse"><stop offset="0" stop-color="#8fb0c4"/><stop offset=".3" stop-color="#d9c8a4"/><stop offset=".7" stop-color="#f6cf8e"/><stop offset="1" stop-color="#fbe0a8"/></linearGradient><linearGradient id="shamian-rd" x1="0" x2="0" y1="189" y2="240" gradientUnits="userSpaceOnUse"><stop offset="0" stop-color="#e8bd7e"/><stop offset="1" stop-color="#cf955b"/></linearGradient><filter id="shamian-gr" width="100%" height="100%" x="0" y="0"><feTurbulence baseFrequency=".8" numOctaves="2" seed="3" stitchTiles="stitch" type="fractalNoise"/><feColorMatrix values="0 0 0 0 .5 0 0 0 0 .5 0 0 0 0 .5 0 0 0 1.6 -.55"/></filter></defs><path fill="url(#shamian-sky)" d="M0 0h360v184H0z"/><circle cy="120" r="210" fill="url(#shamian-glow1)"/><path fill="#fff0cf" d="M170 44q13-5 39-4 32.5-3 58.5-1 26 .5 32.5 5Z" opacity=".5"/><path fill="#ffe6bd" d="M250 62q12-4 36-3.2 30-2.4 54-.8 24 .4 30 4Z" opacity=".5"/><path fill="#dcc08a" d="M96 150a7.7 7.7 0 0 1 15.3 0 8.6 8.9 0 0 1 17.2 0 10.4 8.6 0 0 1 20.8 0 6.1 6.9 0 0 1 12.2 0 7.8 7 0 0 1 15.6 0 13 12.8 0 0 1 25.9 0 11.9 11.7 0 0 1 23.7 0 10.5 9 0 0 1 20.9 0 10.4 12 0 0 1 20.9 0 9.7 10.6 0 0 1 19.3 0 10.7 8.8 0 0 1 21.4 0 11.3 11.7 0 0 1 22.6 0 8.1 6.6 0 0 1 16.2 0 12.1 11.9 0 0 1 24.1 0v40H96Z" opacity=".8"/><path fill="#d9bb86" d="M40 164a6.2 5.2 0 0 1 12.4 0 7 6 0 0 1 14 0 5.3 5.1 0 0 1 10.7 0 9.6 10.7 0 0 1 19.2 0 8.8 7.8 0 0 1 17.7 0 7.7 7 0 0 1 15.4 0 5.9 4.9 0 0 1 11.7 0v40H40Z"/><path fill="#dcb077" d="M89 128h10v56H89Zm-.5 0 5.5-28 5.5 28ZM79 150h10v34H79Zm-1 0 6-7 6 7Z"/><path fill="#c4945f" d="M94 128h5v56h-5Zm0-28 5.5 28H94Z"/><path fill="#a97a4e" d="M92.5 134h3v8h-3Zm.3 20h2.4v7h-2.4Zm-9.8 2h2v6h-2Z"/><path fill="#c9a06c" d="M93.7 94h.6v6h-.6Zm-1.3 2h3.2v.6h-3.2Z"/><path fill="#b85e3f" d="m127 98 39-24h134l39 24Z"/><path fill="#e08d5f" d="m127 98 39-24h10l-32 24Z"/><path fill="#8e4633" d="m339 98-39-24h10l20 24Z"/><path fill="none" stroke="#9c4c36" stroke-dasharray=".6 4" stroke-width="23" d="M162 86h142" opacity=".3"/><path fill="#f0a878" d="M166 72.6h134v1.6H166Z"/><path fill="#c4714c" d="M184 64h6v14h-6Zm88 2h6v12h-6Z"/><path fill="#eaa47a" d="M184 64h2v14h-2Zm88 2h2v12h-2Z"/><path fill="#8a4431" d="M183 62.5h8v2h-8Zm88 2h8v2h-8Z"/><path fill="#e8c07f" d="M132 96h202v88H132Z"/><path fill="#e8c07f" d="M213.6 90h38.9v94h-38.9Z"/><path fill="#efd199" d="M210.6 91 233 74l22.4 17Z"/><path fill="#dba96b" d="M215.6 89.5 233 78l17.4 11.5Z"/><circle cx="233" cy="84.5" r="3.3" fill="#a8704c"/><circle cx="232.4" cy="84.3" r="2.2" fill="#f2d6a0"/><path fill="#b8834f" d="M250.4 90h2v94h-2Z"/><path fill="#f8e3b0" d="M213.6 90h2v94h-2Z"/><path fill="#f8e3b0" d="M129 94h208v4H129Zm1 45h206v3.4H130Z"/><path fill="#b8834f" d="M129 98h208v1.6H129Zm1 44.4h206v1.4H130Z"/><path fill="#7a4a36" d="M137.8 180v-20a8.6 8.6 0 0 1 17.2 0v20Zm.8-41v-21a7.8 7.8 0 0 1 15.6 0v21Zm28.1 41v-20a8.6 8.6 0 0 1 17.2 0v20Zm.8-41v-21a7.8 7.8 0 0 1 15.6 0v21Zm28 41v-20a8.6 8.6 0 0 1 17.2 0v20Zm.8-41v-21a7.8 7.8 0 0 1 15.6 0v21Zm28.1 41v-20a8.6 8.6 0 0 1 17.2 0v20Zm.8-41v-21a7.8 7.8 0 0 1 15.6 0v21Zm28.1 41v-20a8.6 8.6 0 0 1 17.2 0v20Zm.8-41v-21a7.8 7.8 0 0 1 15.6 0v21Zm28 41v-20a8.6 8.6 0 0 1 17.2 0v20Zm.8-41v-21a7.8 7.8 0 0 1 15.6 0v21Zm28.1 41v-20a8.6 8.6 0 0 1 17.2 0v20Zm.8-41v-21a7.8 7.8 0 0 1 15.6 0v21Z"/><path fill="#a8704c" d="m144.8 180-3-22q6.6-5.6 13.2 0v22Zm.8-41-3-23q5.8-4.8 11.6 0v23Zm28.1 41-3-22q6.6-5.6 13.2 0v22Zm.8-41-3-23q5.8-4.8 11.6 0v23Zm28 41-3-22q6.6-5.6 13.2 0v22Zm.8-41-3-23q5.8-4.8 11.6 0v23Zm28.1 41-3-22q6.6-5.6 13.2 0v22Zm.8-41-3-23q5.8-4.8 11.6 0v23Zm28.1 41-3-22q6.6-5.6 13.2 0v22Zm.8-41-3-23q5.8-4.8 11.6 0v23Zm28 41-3-22q6.6-5.6 13.2 0v22Zm.8-41-3-23q5.8-4.8 11.6 0v23Zm28.1 41-3-22q6.6-5.6 13.2 0v22Zm.8-41-3-23q5.8-4.8 11.6 0v23Z"/><path fill="#56785a" d="M142.2 157h8.4v23h-8.4Zm0-42h8.4v24h-8.4Zm28.9 42h8.4v23h-8.4Zm0-42h8.4v24h-8.4Zm28.8 42h8.4v23h-8.4Zm0-42h8.4v24h-8.4Zm28.9 42h8.4v23h-8.4Zm0-42h8.4v24h-8.4Zm28.9 42h8.4v23h-8.4Zm0-42h8.4v24h-8.4Zm28.8 42h8.4v23h-8.4Zm0-42h8.4v24h-8.4Zm28.9 42h8.4v23h-8.4Zm0-42h8.4v24h-8.4Z"/><path fill="#86ab7f" d="M146.8 157h3.8v23h-3.8Zm0-42h3.8v24h-3.8Zm28.9 42h3.8v23h-3.8Zm0-42h3.8v24h-3.8Zm28.8 42h3.8v23h-3.8Zm0-42h3.8v24h-3.8Zm28.9 42h3.8v23h-3.8Zm0-42h3.8v24h-3.8Zm28.9 42h3.8v23h-3.8Zm0-42h3.8v24h-3.8Zm28.8 42h3.8v23h-3.8Zm0-42h3.8v24h-3.8Zm28.9 42h3.8v23H320Zm0-42h3.8v24H320Z"/><path fill="none" stroke="#3f5a45" stroke-dasharray=".6 2.2" stroke-width="8.4" d="M146.4 157v23m0-65v24m28.9 18v23m0-65v24m28.8 18v23m0-65v24m28.9 18v23m0-65v24m28.9 18v23m0-65v24m28.8 18v23m0-65v24m28.9 18v23m0-65v24" opacity=".5"/><path fill="#7a4a36" d="M137.8 180v-20l4.6-2 3 22Zm.8-41v-21l4.6-2 3 23Zm28.1 41v-20l4.6-2 3 22Zm.8-41v-21l4.6-2 3 23Zm28 41v-20l4.6-2 3 22Zm.8-41v-21l4.6-2 3 23Zm28.1 41v-20l4.6-2 3 22Zm.8-41v-21l4.6-2 3 23Zm28.1 41v-20l4.6-2 3 22Zm.8-41v-21l4.6-2 3 23Zm28 41v-20l4.6-2 3 22Zm.8-41v-21l4.6-2 3 23Zm28.1 41v-20l4.6-2 3 22Zm.8-41v-21l4.6-2 3 23Z" opacity=".6"/><path fill="#f5dcaa" d="M138.6 131h15.6v1.4h-15.6Zm28.9 0h15.6v1.4h-15.6Zm28.8 0h15.6v1.4h-15.6Zm28.9 0h15.6v1.4h-15.6Zm28.9 0h15.6v1.4h-15.6Zm28.8 0h15.6v1.4h-15.6Zm28.9 0h15.6v1.4h-15.6Z"/><path fill="none" stroke="#f0d29c" stroke-dasharray="1 1.4" stroke-width="6.6" d="M139.2 135.6h15m13.9 0h15m13.8 0h15m13.9 0h15m13.9 0h15m13.8 0h15m13.9 0h15"/><path fill="#f8e3b0" d="M144.8 150.2h3.2v3h-3.2Zm0-41.2h3.2v3h-3.2Zm28.9 41.2h3.2v3h-3.2Zm0-41.2h3.2v3h-3.2Zm28.8 41.2h3.2v3h-3.2Zm0-41.2h3.2v3h-3.2Zm28.9 41.2h3.2v3h-3.2Zm0-41.2h3.2v3h-3.2Zm28.9 41.2h3.2v3h-3.2Zm0-41.2h3.2v3h-3.2Zm28.8 41.2h3.2v3h-3.2Zm0-41.2h3.2v3h-3.2Zm28.9 41.2h3.2v3H318Zm0-41.2h3.2v3H318Z"/><path fill="#f8e3b0" d="M159.5 100h1.6v80h-1.6Zm28.8 0h1.6v80h-1.6Zm28.9 0h1.6v80h-1.6Zm28.8 0h1.6v80H246Zm28.9 0h1.6v80h-1.6Zm28.8 0h1.6v80h-1.6ZM132 100h2v80h-2Z" opacity=".8"/><path fill="#dba96b" d="M161.1 100h1.2v80h-1.2Zm28.8 0h1.2v80h-1.2Zm28.9 0h1.2v80h-1.2Zm28.8 0h1.2v80h-1.2Zm28.9 0h1.2v80h-1.2Zm28.8 0h1.2v80h-1.2Z" opacity=".8"/><path fill="#b8834f" d="M331.5 96h2.5v88h-2.5Z"/><path fill="#d7a56b" d="M130 180h206v4H130Z"/><path fill="#f8e3b0" d="M130 180h206v1H130Z"/><path fill="#8b4f33" d="M129 90h30v94h-30Zm32.5 45a13.5 7.2 0 1 0 26.9 0 13.5 7.2 0 1 0-26.9 0m11.8-.1a14.4 7.7 0 1 0 28.8 0 14.4 7.7 0 1 0-28.8 0M136.6 119a14.6 7.8 0 1 0 29.2 0 14.6 7.8 0 1 0-29.2 0m31 25.3a8.3 4.5 0 1 0 16.7 0 8.3 4.5 0 1 0-16.7 0m-10.4-38a11.6 6.2 0 1 0 23.2 0 11.6 6.2 0 1 0-23.2 0m6.6-13.5a9.1 4.9 0 1 0 18.3 0 9.1 4.9 0 1 0-18.3 0m-15.9 52.3a13.2 7.1 0 1 0 26.5 0 13.2 7.1 0 1 0-26.5 0m-.1-6.9a8.5 4.6 0 1 0 17.1 0 8.5 4.6 0 1 0-17.1 0m19.4-38.9a7.5 4 0 1 0 15 0 7.5 4 0 1 0-15 0m8.5 4.8a9.1 4.9 0 1 0 18.2 0 9.1 4.9 0 1 0-18.2 0m3.9 38.5a9.7 5.2 0 1 0 19.3 0 9.7 5.2 0 1 0-19.3 0m-3.7-19.3a12.6 6.7 0 1 0 25.2 0 12.6 6.7 0 1 0-25.2 0m-30.4 23.3a12.7 6.8 0 1 0 25.4 0 12.7 6.8 0 1 0-25.4 0m33.4-2.8a9.7 5.2 0 1 0 19.5 0 9.7 5.2 0 1 0-19.5 0m-23-42.2a8.6 4.6 0 1 0 17.2 0 8.6 4.6 0 1 0-17.2 0m-15.3 7.9a12 6.4 0 1 0 24 0 12 6.4 0 1 0-24 0m-16 47.4a9.6 5.9 0 1 0 19.1 0 9.6 5.9 0 1 0-19.1 0m10.3 11.9a10.3 6.3 0 1 0 20.6 0 10.3 6.3 0 1 0-20.6 0m-1-28.4a11.5 7.1 0 1 0 22.9 0 11.5 7.1 0 1 0-22.9 0m-5.8 41.5a7.9 4.9 0 1 0 15.8 0 7.9 4.9 0 1 0-15.8 0m25-10.9a7.9 4.9 0 1 0 15.8 0 7.9 4.9 0 1 0-15.8 0m-1.5-40.2a10.8 6.7 0 1 0 21.6 0 10.8 6.7 0 1 0-21.6 0m-26-26.9a8.7 5.4 0 1 0 17.5 0 8.7 5.4 0 1 0-17.5 0m31.1 12.6a11.7 7.2 0 1 0 23.5 0 11.7 7.2 0 1 0-23.5 0m1.2 62.6a9.6 5.9 0 1 0 19.2 0 9.6 5.9 0 1 0-19.2 0m-23-35a11.8 7.3 0 1 0 23.7 0 11.8 7.3 0 1 0-23.7 0m-9 18.8a11.9 7.4 0 1 0 23.9 0 11.9 7.4 0 1 0-23.9 0m26.3-59.8a12.7 7.8 0 1 0 25.4 0 12.7 7.8 0 1 0-25.4 0" opacity=".2"/><path fill="#ffe7b0" d="M136.3 126.6a2.4.9 0 1 0 4.8 0 2.4.9 0 1 0-4.8 0m27.1 45a2.4.9 0 1 0 4.8 0 2.4.9 0 1 0-4.8 0m-14.1.5a2.4.9 0 1 0 4.8 0 2.4.9 0 1 0-4.8 0m10.6-47.7a2.4.9 0 1 0 4.8 0 2.4.9 0 1 0-4.8 0m-11.8-10.6a2.4.9 0 1 0 4.8 0 2.4.9 0 1 0-4.8 0" opacity=".6"/><path fill="#6d5a44" d="M350.2 186a66 66 0 0 0-8-46l4.6-2.3c8.1 11.5 10.3 13.8 20.7-2.3l3.4 3.4a69 69 0 0 0-8 47.2Z"/><path fill="none" stroke="#6d5a44" stroke-width=".8" d="M337.1 131.3q-1.7 27.4 1.5 53.5m0-54q-1.4 27.6 1 48.9m13.2-41.9q-1.4 24.1 2.2 47m-17.3-40.5q-1.1 20.9-.7 29.3m10.7-30.6q-1.2 21.5 3.3 42.1m13.3-45.7q.7 23.3-1.1 37.1m-7.4-40.9q1.9 25.2.6 48.4m-30.5-52.5q0 27.3-2.1 41.4m37.6-38.4q1.8 25.8-1.4 46.6" opacity=".8"/><path fill="#6f7a48" d="M370.3 135.4a18.7 12.5 0 1 0 37.5 0 18.7 12.5 0 1 0-37.5 0m-67.7-4.2a18.2 12.2 0 1 0 36.5 0 18.2 12.2 0 1 0-36.5 0m76.1.6a16.6 11.1 0 1 0 33.2 0 16.6 11.1 0 1 0-33.2 0m-65.9 2.9a16.8 11.2 0 1 0 33.6 0 16.8 11.2 0 1 0-33.6 0m24.2.1a19.9 13.3 0 1 0 39.8 0 19.9 13.3 0 1 0-39.8 0m5.4-15.8a14.2 9.5 0 1 0 28.5 0 14.2 9.5 0 1 0-28.5 0m-24 17.4a15.3 10.2 0 1 0 30.5 0 15.3 10.2 0 1 0-30.5 0m1.7-6.2a15.5 10.4 0 1 0 31.1 0 15.5 10.4 0 1 0-31.1 0m51.2-3.2a13.9 9.2 0 1 0 27.7 0 13.9 9.2 0 1 0-27.7 0m-42.3 6.1a17.9 11.9 0 1 0 35.8 0 17.9 11.9 0 1 0-35.8 0m49.7 2.5a18.8 12.5 0 1 0 37.5 0 18.8 12.5 0 1 0-37.5 0m-58.9.7a18.7 12.5 0 1 0 37.5 0 18.7 12.5 0 1 0-37.5 0m6.3-2.9a16 10.7 0 1 0 32.1 0 16 10.7 0 1 0-32.1 0m-9.7-2.4a16.1 10.7 0 1 0 32.2 0 16.1 10.7 0 1 0-32.2 0m17.6-7.2a14.8 9.9 0 1 0 29.6 0 14.8 9.9 0 1 0-29.6 0m-26.7 12.1a13.3 8.9 0 1 0 26.6 0 13.3 8.9 0 1 0-26.6 0"/><path fill="#8f9a58" d="M370.3 131.9a16.4 10.9 0 1 0 32.8 0 16.4 10.9 0 1 0-32.8 0m-67.7-4.1a16 10.6 0 1 0 31.9 0 16 10.6 0 1 0-31.9 0m75.9.5a14.5 9.7 0 1 0 29 0 14.5 9.7 0 1 0-29 0m-65.9 3a14.7 9.8 0 1 0 29.4 0 14.7 9.8 0 1 0-29.4 0m24.5 0a17.4 11.6 0 1 0 34.8 0 17.4 11.6 0 1 0-34.8 0m4.8-15.7a12.5 8.3 0 1 0 24.9 0 12.5 8.3 0 1 0-24.9 0M318 132.9a13.4 8.9 0 1 0 26.7 0 13.4 8.9 0 1 0-26.7 0m1.7-6.2a13.6 9.1 0 1 0 27.2 0 13.6 9.1 0 1 0-27.2 0m51.1-3.1a12.1 8.1 0 1 0 24.3 0 12.1 8.1 0 1 0-24.3 0m-41.8 6a15.7 10.4 0 1 0 31.3 0 15.7 10.4 0 1 0-31.3 0m49.8 2.6a16.4 10.9 0 1 0 32.8 0 16.4 10.9 0 1 0-32.8 0m-59 .7a16.4 10.9 0 1 0 32.8 0 16.4 10.9 0 1 0-32.8 0m6.1-2.9a14 9.3 0 1 0 28 0 14 9.3 0 1 0-28 0m-9.7-2.5a14.1 9.4 0 1 0 28.2 0 14.1 9.4 0 1 0-28.2 0m17.4-7.2a13 8.6 0 1 0 25.9 0 13 8.6 0 1 0-25.9 0m-26.9 12.2a11.6 7.8 0 1 0 23.3 0 11.6 7.8 0 1 0-23.3 0"/><path fill="#c9995f" d="M0 184h360v56H0Z"/><path fill="#5f7440" d="M116 187a3.7 3.9 0 0 1 7.4 0 4.2 3.6 0 0 1 8.3 0 2.5 2.4 0 0 1 5.1 0 3.2 3.6 0 0 1 6.4 0 4.2 4.4 0 0 1 8.5 0 3.9 4.1 0 0 1 7.8 0 2.9 2.8 0 0 1 5.7 0 2.9 3.4 0 0 1 5.8 0 2.6 3 0 0 1 5.3 0 2.7 2.9 0 0 1 5.4 0 3.3 3.2 0 0 1 6.7 0 4.6 3.7 0 0 1 9.2 0 2.7 3.1 0 0 1 5.3 0 3.8 3.2 0 0 1 7.5 0 5 5.9 0 0 1 9.9 0 2.8 2.8 0 0 1 5.6 0 2.8 2.6 0 0 1 5.7 0 4.1 3.5 0 0 1 8.1 0 4.2 3.5 0 0 1 8.5 0 2.9 3.3 0 0 1 5.9 0 3.5 3.4 0 0 1 7 0 4 4 0 0 1 8 0 3.5 2.8 0 0 1 6.9 0 4.3 5.1 0 0 1 8.6 0 4.9 5.3 0 0 1 9.9 0 3.4 3.2 0 0 1 6.8 0 4.2 4.5 0 0 1 8.5 0 2.8 2.5 0 0 1 5.6 0 3.4 3.4 0 0 1 6.8 0 4.5 4.5 0 0 1 9.1 0 2.6 2.9 0 0 1 5.1 0 3.6 3.6 0 0 1 7.2 0 3.1 3 0 0 1 6.1 0 3.5 3.8 0 0 1 6.9 0 2.8 2.8 0 0 1 5.5 0 2.9 3.2 0 0 1 5.9 0v40H116Z"/><path fill="none" stroke="#9aab5c" stroke-dasharray="0 7" stroke-linecap="round" stroke-width="3.6" d="M122 183.5h238"/><path fill="#3e3226" d="M116 181h244v1H116Z" opacity=".8"/><path fill="none" stroke="#3e3226" stroke-dasharray=".8 4.2" stroke-width="9" d="M118 181.5h242" opacity=".8"/><path fill="url(#shamian-rd)" d="M0 189h360v51H0z"/><path fill="#f4d59c" d="M0 188h360v2.4H0Z"/><path fill="none" stroke="#b98450" stroke-width=".7" d="M0 199h360M0 216h360" opacity=".4"/><path fill="#6e4430" d="M0 188h262c-12 8-26 12-48 16-18 6-28 0-48 10-26 12-48 8-70 18-26 8-66 4-96 8Z" opacity=".5"/><path fill="#ffe2a4" d="M14.7 198a8.6 1.8 0 1 0 17.2 0 8.6 1.8 0 1 0-17.2 0m115.5 12.1a5.1 1.1 0 1 0 10.1 0 5.1 1.1 0 1 0-10.1 0m-17.7.7a3.6.8 0 1 0 7.3 0 3.6.8 0 1 0-7.3 0m-87 14.6a10.6 2.2 0 1 0 21.2 0 10.6 2.2 0 1 0-21.2 0m.4-14a4.4.9 0 1 0 8.7 0 4.4.9 0 1 0-8.7 0m80.8 2.5a8.9 1.9 0 1 0 17.8 0 8.9 1.9 0 1 0-17.8 0m8.8-9.2a6.3 1.3 0 1 0 12.7 0 6.3 1.3 0 1 0-12.7 0m-86.4 4a10.9 2.3 0 1 0 21.8 0 10.9 2.3 0 1 0-21.8 0m93.8-1.8a3.9.8 0 1 0 7.8 0 3.9.8 0 1 0-7.8 0m16.5-15.4a7.5 1.6 0 1 0 14.9 0 7.5 1.6 0 1 0-14.9 0m-80.5 31.1a6.8 1.4 0 1 0 13.6 0 6.8 1.4 0 1 0-13.6 0m65.6-23.8a9.7 2 0 1 0 19.5 0 9.7 2 0 1 0-19.5 0" opacity=".8"/><path fill="#9a6a45" d="m310 198 56 11v1.6L310 200Z" opacity=".5"/><path fill="#3b2c22" d="M309 134h2v65h-2Zm-2 61h6v4h-6Zm-1-61h8l-1.5-7h-5Zm3.5-10h1v3h-1Z"/><circle cx="310" cy="130" r="2.2" fill="#fff0c4"/><circle cx="310" cy="130" r="9" fill="url(#shamian-glow3)"/><path fill="#5a3f2c" d="M256 190h22v1.6h-22Zm0-5h22v1.4h-22Zm1 5h1.2v5H257Zm19 0h1.2v5H276Z"/><path fill="#6a4630" d="m212 214 46.2 5.8v1.7l-42.2-6.7Zm48 8 47.5 5.9v1.8l-43.5-6.9Zm-112-18 41 5.1v1.5l-37-5.8Zm22 2 42 5.2v1.6l-38-6Zm78 16 46.2 5.8v1.7l-42.2-6.7Z" opacity=".4"/><path fill="#3d2a20" d="M212.2 198.9a1.8 1.9 0 1 0 3.6 0 1.8 1.9 0 1 0-3.6 0m4.1 2.3q-2.3-1.2-4.6 0l-.5 5.9h1.1l.1 6.9h1.2l.4-5.8.4 5.8h1.2l.1-6.9h1.1Zm-4.2.7-3.2-1.3-.4.9 3.2 1.7Zm-4.8-2.6h1.7v2.5h-1.7Zm52.8 7.2a1.9 2 0 1 0 3.7 0 1.9 2 0 1 0-3.7 0m-.5 2.4q2.4-1.3 4.8 0l.4 6h-1l-.2 7.1h-1.2l-.4-6-.4 6h-1.2l-.2-7.1h-1Zm-111.2-18.2a1.6 1.7 0 1 0 3.2 0 1.6 1.7 0 1 0-3.2 0m-.4 2.1q2-1.2 4 0l.2 5.1-.9.1 1.7 6h-1.1l-1.9-4.7-1.9 4.7H147l1.7-6-.9-.1Zm22.4-.5a1.6 1.7 0 1 0 3.3 0 1.6 1.7 0 1 0-3.3 0m3.6 2.1q-2-1.1-4 0l-.3 5.3 1 .1-1.8 6.2h1.2l1.9-4.8 1.9 4.8h1.2l-1.8-6.2 1-.1Z"/><path fill="#f7ead0" d="M248 210q2-1.4 4 0l.4 4q4.6 5 6.6 8h-17l5.6-8Z"/><path fill="#d4b996" d="m250.5 209.6 1.5.4.4 4q4.6 5 6.6 8h-8Z"/><path fill="#3d2a20" d="M248.2 207.6a1.8 1.8 0 1 0 3.6 0 1.8 1.8 0 1 0-3.6 0"/><path fill="#4d3727" d="M-12 240V100c12 4 24-2 32-16l26 6c-4 22 0 50 10 78 8 26 24 54 48 72Z"/><path fill="#33241a" d="M46 90c-4 22 0 50 10 78 8 26 24 54 48 72H80c-16-24-28-50-34-76s-10-52-10-72Z"/><path fill="#33241a" d="M52 230c14-6 38-2 68 10H56Z"/><path fill="#b0804e" d="M-12 116c10 2 16-4 20-12l4 4c-4 32-8 82-4 132h-20Z" opacity=".6"/><path fill="none" stroke="#33241a" stroke-width="1.4" d="M18 240c2-40 4-80 2-128m10 128c2-40 2-90-2-140M8 240c2-40 4-90 4-132" opacity=".7"/><path fill="none" stroke="#b0804e" stroke-width=".8" d="M24 238c2-38 2-88-1-132m17 132c-2-38-4-88-6-128" opacity=".4"/><path fill="#4d3727" d="M24 96c16-20 46-36 110-56l2 7c-56 17-82 33-96 55Z"/><path fill="#4d3727" d="M56 78c22-14 38-32 46-54l6 2c-6 24-20 42-42 58ZM14 92C8 74 2 62-10 52v14C-2 76 2 86 6 96Z"/><path fill="#b0804e" d="M24 96c16-20 46-36 110-56l1 2C80 60 52 76 32 98Z" opacity=".6"/><path fill="none" stroke="#4d3727" stroke-width="1.1" d="M48 80.6q1.1 38.7.5 77.3M54 77.6q.5 45.9 1.6 91.8M60 74.7q-1.9 54.2-2 108.4m9-112.4q-1.1 54.6 1.1 109.2M73 68.7q-.1 41.6-1.6 83.2M79 63.7q-.7 46.2-1.9 92.4M84 61.9q-.1 44.9-.7 89.7M101 55.8q-1 60.7 2.4 121.3m4.6-127q-.9 59.3-.5 118.5M118 46q-.5 71.1-2.8 142.2m8.8-143q.2 54.6-1 109.2m7-112.1q1.3 75.9-.5 151.8" opacity=".8"/><path fill="none" stroke="#b0804e" stroke-width=".7" d="M55.4 77v91m13-97v98m12-103.5V163m22-107.7V167m17-119.5V166m12-124v118" opacity=".5"/><path fill="#4d3727" d="M62 78c-1 42 1 92-2 138h5c2-46 1-96 0-140Zm50-28c1 50-1 110 2 164h4c-3-54-1-114-2-165ZM62 216c-4 2-6 4-8 6h16c-2-2-4-4-5-6Zm52-2c-4 2-6 4-8 6h19c-3-2-5-4-7-6Z"/><g stroke="#2e3c25" stroke-linecap="round"><path stroke-width="18" d="M116 45.9h0m-21.9.6h0" transform="scale(1 .72)"/><path stroke-width="20" d="M145.7 62.6h0m-59.4 5.2h0M115 55.2h0" transform="scale(1 .72)"/><path stroke-width="24" d="M59.9 92.6h0" transform="scale(1 .72)"/><path stroke-width="26" d="M42.5 108.6h0m2.4-62.9h0m66.9 18.9h0" transform="scale(1 .72)"/><path stroke-width="28" d="M55.8 52.4h0m85.1-21.6h0m30.9-3.4h0M35.6 73.2h0" transform="scale(1 .72)"/><path stroke-width="32" d="M18.3 82.5h0" transform="scale(1 .72)"/><path stroke-width="34" d="M61.2 20.1h0M182 45.5h0M6.5 53.1h0m39.1 48.1h0m1.8-43h0" transform="scale(1 .72)"/><path stroke-width="36" d="M-17.1 27.6h0M5.5 44.2h0m89.7-30.6h0M164 3.5h0" transform="scale(1 .72)"/><path stroke-width="38" d="M155.6 36h0M43 59.9h0m51.5-36.8h0m82.4-5.5h0" transform="scale(1 .72)"/><path stroke-width="40" d="M6.3 34.8h0M-18 96.9h0" transform="scale(1 .72)"/><path stroke-width="42" d="M36.1 61h0m50.1-50.2h0M43.3 34h0m89.7 1.8h0" transform="scale(1 .72)"/><path stroke-width="44" d="M10.7 33.5h0m176.1 27.1h0M3.3 31.6h0m184.3 25h0m-39.5-35.2h0" transform="scale(1 .72)"/><path stroke-width="48" d="M119.3 34.9h0" transform="scale(1 .72)"/><path stroke-width="50" d="M43.3 48.2h0" transform="scale(1 .72)"/><path stroke-width="52" d="M10.4 37.5h0m148.9-41h0" transform="scale(1 .72)"/><path stroke-width="54" d="M34.5 25h0" transform="scale(1 .72)"/><path stroke-width="56" d="M69.7 15.5h0M37.8 3.6h0" transform="scale(1 .72)"/></g><g stroke="#44582f" stroke-linecap="round"><path stroke-width="16" d="M145.7 59.5h0m-59.4 5.1h0M115 52h0m1-9.2h0m-21.9.7h0" transform="scale(1 .72)"/><path stroke-width="20" d="M59.9 88.7h0" transform="scale(1 .72)"/><path stroke-width="22" d="M42.5 104.4h0m69.3-44.2h0" transform="scale(1 .72)"/><path stroke-width="24" d="M55.8 47.9h0M140.9 26h0m30.9-3.3h0M35.6 68.6h0m9.3-27.4h0" transform="scale(1 .72)"/><path stroke-width="28" d="M18.3 77.3h0M6.5 47.6h0" transform="scale(1 .72)"/><path stroke-width="30" d="M61.2 14.5h0m-78.3 7.3h0m199.1 18h0M45.6 95.5h0m1.8-42.9h0" transform="scale(1 .72)"/><path stroke-width="32" d="M155.6 29.7h0M5.5 38.3h0M95.2 7.6h0m-.7 9.3h0M164-2.5h0" transform="scale(1 .72)"/><path stroke-width="34" d="M43 53.6h0M6.3 28.2h0m170.6-17h0M-18 90.3h0" transform="scale(1 .72)"/><path stroke-width="36" d="M36.1 54.2h0M86.2 4h0M43.3 27.2h0M133 29h0" transform="scale(1 .72)"/><path stroke-width="38" d="M10.7 26.4h0m176.1 26.8h0M3.3 24.2h0m184.3 25.1h0m-39.5-35.1h0" transform="scale(1 .72)"/><path stroke-width="42" d="M119.3 26.9h0" transform="scale(1 .72)"/><path stroke-width="44" d="M43.3 39.8h0m116-51.7h0" transform="scale(1 .72)"/><path stroke-width="46" d="M10.4 28.8h0m24.1-12.6h0" transform="scale(1 .72)"/><path stroke-width="48" d="M69.7 6.4h0M37.8-5.5h0" transform="scale(1 .72)"/></g><g stroke="#98984a" stroke-linecap="round"><path stroke-width="8" d="M142.5 55.9h0M83.1 61h0m28.6-12.6h0m1.2-9.2h0m-21.8.9h0" opacity=".8" transform="scale(1 .72)"/><path stroke-width="10" d="M55.9 84.3h0" opacity=".8" transform="scale(1 .72)"/><path stroke-width="12" d="M51.2 42.7h0M30.9 63.4h0m7.4 36.3h0m2.2-63.5h0m66.9 19.1h0" opacity=".8" transform="scale(1 .72)"/><path stroke-width="14" d="M136.1 20.6h0M13 71.4h0" opacity=".8" transform="scale(1 .72)"/><path stroke-width="16" d="M55.5 8.1h0M-23 15.2h0M-.5 31.5h0M89.2.9h0M1 41.4h0M39.8 89h0m1.9-42.8h0" opacity=".8" transform="scale(1 .72)"/><path stroke-width="18" d="M149.3 22.6h0M36.6 46.4h0m-7.4 0h0M79.4-3.7h0M-.3 20.7h0m36.8-1.1h0m51.7-9.8h0m37.9 11.5h0M-24.6 82.8h0" opacity=".8" transform="scale(1 .72)"/><path stroke-width="20" d="M3.5 18.2h0m-7.7-2.4h0M140.9 6h0" opacity=".8" transform="scale(1 .72)"/><path stroke-width="22" d="M111.2 17.9h0" opacity=".8" transform="scale(1 .72)"/><path stroke-width="24" d="M1.7 19h0m33.2 11.3h0m-9.2-24h0m125.1-27.7h0" opacity=".8" transform="scale(1 .72)"/><path stroke-width="26" d="M60.6-3.9h0m-32-11.9h0" opacity=".8" transform="scale(1 .72)"/></g><path stroke="#ffd98c" stroke-linecap="round" stroke-width="2" d="M25.5 25.9h0M59.8 36h0M93 56.3h0m-21.9-53h0m61.4 5.8h0M120 30.4h0m53 2.9h0m-55-17.5h0m-13.2-.5h0M142.6 31h0M25.4 14.1h0m45.1 30.1h0m-36.4-1.4h0m90.4-37.7h0m2.4.4h0M23.7 35.6h0m21.6 17h0m46-33.2h0" opacity=".8"/><path fill="#ffe2a0" d="m0 60 40-20 210 200H150Zm60-30 30-6 240 216h-60Z" opacity=".1"/><path fill="url(#shamian-vig)" d="M0 0h360v240H0z"/><path d="M0 0h360v240H0z" filter="url(#shamian-gr)" opacity=".2" style="mix-blend-mode:overlay"/></svg>