<svg xmlns="http://www.w3.org/2000/svg" preserveAspectRatio="xMidYMid slice" viewBox="0 0 360 240"><defs><linearGradient id="zhenhai-sky" x1="0" x2="0" y1="0" y2="240" gradientUnits="userSpaceOnUse"><stop offset="0" stop-color="#a9c7c9"/><stop offset=".5" stop-color="#cfe0da"/><stop offset="1" stop-color="#e9f0e6"/></linearGradient><linearGradient id="zhenhai-m1" x1="0" x2="0" y1="0" y2="1"><stop offset="0" stop-color="#eef3ea" stop-opacity="0"/><stop offset=".5" stop-color="#eef3ea" stop-opacity=".7"/><stop offset="1" stop-color="#eef3ea" stop-opacity="0"/></linearGradient><linearGradient id="zhenhai-m2" x1="0" x2="0" y1="0" y2="1"><stop offset="0" stop-color="#eef3ea" stop-opacity="0"/><stop offset=".5" stop-color="#eef3ea" stop-opacity=".6"/><stop offset="1" stop-color="#eef3ea" stop-opacity="0"/></linearGradient><linearGradient id="zhenhai-m3" x1="0" x2="0" y1="0" y2="1"><stop offset="0" stop-color="#eef3ea" stop-opacity="0"/><stop offset=".5" stop-color="#eef3ea" stop-opacity=".6"/><stop offset="1" stop-color="#eef3ea" stop-opacity="0"/></linearGradient><linearGradient id="zhenhai-m4" x1="0" x2="0" y1="0" y2="1"><stop offset="0" stop-color="#eef3ea" stop-opacity="0"/><stop offset=".5" stop-color="#eef3ea" stop-opacity=".3"/><stop offset="1" stop-color="#eef3ea" stop-opacity="0"/></linearGradient><radialGradient id="zhenhai-glow1" cx="292" cy="62" r="170" gradientUnits="userSpaceOnUse"><stop offset="0" stop-color="#fff6dc" stop-opacity=".6"/><stop offset=".4" stop-color="#fff6dc" stop-opacity=".2"/><stop offset="1" stop-color="#fff6dc" stop-opacity="0"/></radialGradient><radialGradient id="zhenhai-glow2" cx="292" cy="62" r="30" gradientUnits="userSpaceOnUse"><stop offset="0" stop-color="#fffbea" stop-opacity=".9"/><stop offset=".4" stop-color="#fffbea" stop-opacity=".3"/><stop offset="1" stop-color="#fffbea" stop-opacity="0"/></radialGradient><radialGradient id="zhenhai-vig" cx=".5" cy=".5" r=".8"><stop offset=".6" stop-opacity="0"/><stop offset="1" stop-opacity=".3"/></radialGradient><pattern id="zhenhai-tl" width="2.4" height="9" patternUnits="userSpaceOnUse"><path fill="#4a9467" d="M0 0h2.4v9H0z"/><path fill="#6fb384" d="M0 0h1v9H0z"/></pattern><pattern id="zhenhai-lt" width="3" height="3" patternUnits="userSpaceOnUse"><path fill="#6a2227" d="M0 0h3v3H0z"/><path stroke="#a54a3e" stroke-width=".7" d="M0 .4h3M.4 0v3"/></pattern><filter id="zhenhai-gr" width="100%" height="100%" x="0" y="0"><feTurbulence baseFrequency=".8" numOctaves="2" seed="3" stitchTiles="stitch" type="fractalNoise"/><feColorMatrix values="0 0 0 0 .5 0 0 0 0 .5 0 0 0 0 .5 0 0 0 1.6 -.55"/></filter></defs><path fill="url(#zhenhai-sky)" d="M0 0h360v240H0z"/><circle cx="292" cy="62" r="170" fill="url(#zhenhai-glow1)"/><circle cx="292" cy="62" r="30" fill="url(#zhenhai-glow2)"/><circle cx="292" cy="62" r="11" fill="#fffdf2" opacity=".9"/><path fill="#fffbe8" d="M292 62 24 250h18Zm0 0L104 250h18Zm0 0L164 250h18Zm0 0-58 188h18Z" opacity=".2"/><path fill="none" stroke="#6f8a86" stroke-linejoin="round" stroke-width=".7" d="m244 42 3 2 3-2m6 6 2.4 1.6 2.4-1.6M236 54l2 1.4 2-1.4" opacity=".8"/><path fill="#c8dad6" d="M236 121h12.7v31H236Zm3.7-3.4h5.4v4.5h-5.4Zm17.5 16.2h11V152h-11Zm18.5-2.4h8V152h-8Zm17.9-2.3h12.7V152h-12.7Zm16.9 1.6h7.2V152h-7.2Zm1.7-2.3h3.7v3.3h-3.7Zm12.6 6.9h10.4V152h-10.4Zm2.6-1.8h5.2v2.8h-5.2Zm14.8-7h13V152h-13Zm2.2-2.8h8.7v3.8h-8.7Zm19.2 1H376V152h-12.4Z"/><path fill="#bcd3cb" d="M-10 150q40-32 90-22 50-18 110 4 60-12 110 6 40-8 70 4v98H-10Z"/><path fill="url(#zhenhai-m1)" d="M0 120h360v50H0z"/><path fill="#a5c3b3" d="M-6 160a6.2 6.2 0 0 1 12.4 0 6.8 7.1 0 0 1 13.7 0 8.1 6.7 0 0 1 16.3 0 5.1 5.7 0 0 1 10.1 0 6.3 5.6 0 0 1 12.6 0 10 10 0 0 1 20 0 9.2 9.2 0 0 1 18.4 0 8.2 7.1 0 0 1 16.4 0 8.2 9.4 0 0 1 16.3 0 7.6 8.4 0 0 1 15.2 0 8.4 6.9 0 0 1 16.7 0 8.8 9.1 0 0 1 17.6 0 6.5 5.3 0 0 1 13 0 9.3 9.2 0 0 1 18.7 0 8.6 9.9 0 0 1 17.2 0 8.6 10 0 0 1 17.1 0 7 7.8 0 0 1 13.9 0 7.2 8.5 0 0 1 14.4 0 9.4 7.9 0 0 1 18.8 0 5.7 5 0 0 1 11.4 0 9.8 9.6 0 0 1 19.7 0 8.1 7.5 0 0 1 16.3 0 7.5 7.2 0 0 1 15.1 0 6.8 7 0 0 1 13.5 0v40H-6Z"/><path fill="#b88f84" d="M222 170h150v30H222Zm2-4h5v4.4h-5Zm9 0h5v4.4h-5Zm9 0h5v4.4h-5Zm9 0h5v4.4h-5Zm9 0h5v4.4h-5Zm9 0h5v4.4h-5Zm9 0h5v4.4h-5Zm9 0h5v4.4h-5Zm9 0h5v4.4h-5Zm9 0h5v4.4h-5Zm9 0h5v4.4h-5Zm9 0h5v4.4h-5Zm9 0h5v4.4h-5Zm9 0h5v4.4h-5Zm9 0h5v4.4h-5Zm9 0h5v4.4h-5Z"/><path fill="#a57b72" d="M222 176h150v1.4H222Zm0 8h150v1.2H222Z"/><path fill="url(#zhenhai-m2)" d="M0 150h360v44H0z"/><path fill="#852a2b" d="M90 154v25l-24-.5v-26.3Zm5-22v16l-21-1.9v-16.8Zm5-20v15l-18-2.6v-15.6Zm5-18v13l-15-2.9V90.7Zm5-16v11l-12-2.8V74.9Z"/><path fill="#b23c33" d="M90 154h120v25H90Zm5-22h110v16H95Zm5-20h100v15H100Zm5-18h90v13h-90Zm5-16h80v11h-80Z"/><path fill="url(#zhenhai-lt)" d="M91.8 158h13.5v17H91.8Zm17.1 0h13.5v17h-13.5Zm68.6 0H191v17h-13.5Zm17.2 0h13.5v17h-13.5Zm-97.9-22h12.1v9H96.8Zm15.7 0h12.1v9h-12.1Zm15.7 0h12.1v9h-12.1Zm15.7 0H156v9h-12.1Zm15.8 0h12.1v9h-12.1Zm15.7 0h12.1v9h-12.1Zm15.7 0h12.1v9h-12.1Zm-89.3-20h10.7v8h-10.7Zm14.3 0h10.7v8h-10.7Zm14.3 0h10.7v8h-10.7Zm14.3 0h10.7v8h-10.7Zm14.2 0h10.7v8h-10.7Zm14.3 0h10.7v8h-10.7Zm14.3 0h10.7v8h-10.7Zm-80.7-18h9.3v6h-9.3Zm12.9 0h9.3v6h-9.3Zm12.8 0h9.3v6h-9.3Zm12.9 0h9.3v6h-9.3Zm12.8 0h9.3v6h-9.3Zm12.9 0h9.3v6h-9.3Zm12.8 0h9.3v6h-9.3Zm-72.1-16h7.8v4h-7.8Zm11.4 0h7.8v4h-7.8Zm11.5 0h7.8v4h-7.8Zm11.4 0h7.8v4h-7.8Zm11.4 0h7.8v4h-7.8Zm11.4 0h7.8v4h-7.8Zm11.5 0h7.8v4h-7.8Z"/><path fill="#c94d3c" d="M88.8 154h2.4v24h-2.4Zm17.1 0h2.4v24h-2.4Zm17.2 0h2.4v24h-2.4Zm17.1 0h2.4v24h-2.4Zm17.2 0h2.4v24h-2.4Zm17.1 0h2.4v24h-2.4Zm17.2 0h2.4v24h-2.4Zm17.1 0h2.4v24h-2.4Zm-115-22h2.4v15h-2.4Zm15.7 0h2.4v15h-2.4Zm15.7 0h2.4v15h-2.4Zm15.7 0h2.4v15h-2.4Zm15.8 0h2.4v15h-2.4Zm15.7 0h2.4v15h-2.4Zm15.7 0h2.4v15h-2.4Zm15.7 0h2.4v15h-2.4Zm-105-20h2.4v14h-2.4Zm14.3 0h2.4v14h-2.4Zm14.3 0h2.4v14h-2.4Zm14.3 0h2.4v14h-2.4Zm14.2 0h2.4v14h-2.4Zm14.3 0h2.4v14h-2.4Zm14.3 0h2.4v14h-2.4Zm14.3 0h2.4v14h-2.4Zm-95-18h2.4v12h-2.4Zm12.9 0h2.4v12h-2.4Zm12.8 0h2.4v12h-2.4Zm12.9 0h2.4v12h-2.4Zm12.8 0h2.4v12h-2.4Zm12.9 0h2.4v12h-2.4Zm12.8 0h2.4v12h-2.4Zm12.9 0h2.4v12h-2.4Zm-85-16h2.4v10h-2.4Zm11.4 0h2.4v10h-2.4Zm11.5 0h2.4v10h-2.4Zm11.4 0h2.4v10h-2.4Zm11.4 0h2.4v10h-2.4Zm11.4 0h2.4v10h-2.4Zm11.5 0h2.4v10h-2.4Zm11.4 0h2.4v10h-2.4ZM90 154h120v2.6H90Zm5-22h110v2.6H95Zm0 12.4h110v2.6H95Zm5-32.4h100v2.6H100Zm0 11.4h100v2.6H100Zm5-29.4h90v2.6h-90Zm0 9.4h90v2.6h-90Zm5-25.4h80v2.6h-80Zm0 7.4h80V88h-80Z"/><path fill="#4d171b" d="M126.7 160H139v18h-12.3Zm17.1 0h12.3v18h-12.3Zm17.2 0h12.3v18H161Zm-80.8 12.6v-10.2a1.8 1.8 0 0 1 3.6 0v10.2Zm-8-.6v-10.2a1.8 1.8 0 0 1 3.6 0V172Zm10.5-29.3V137a1.8 1.8 0 0 1 3.6 0v5.7Zm6.5-21.1v-5.2a1.8 1.8 0 0 1 3.6 0v5.2Zm6.5-19.6v-4.2a1.8 1.8 0 0 1 3.6 0v4.2Zm6.5-17.5v-3.2a1.8 1.8 0 0 1 3.6 0v3.2Z"/><path fill="#dc6a50" d="M208.4 154h1.6v24h-1.6Zm-5-22h1.6v15h-1.6Zm-5-20h1.6v14h-1.6Zm-5-18h1.6v12h-1.6Zm-5-16h1.6v10h-1.6Z"/><path fill="#3a0f14" d="M90 157h120v3.2H90Zm0 0-24-1.8v3l24 1.8Zm5-22h110v3.2H95Zm0 0-21-2.7v3l21 2.7Zm5-20h100v3.2H100Zm0 0-18-3.2v3l18 3.2Zm5-18h90v3.2h-90Zm0 0-15-3.3v3l15 3.3Zm5-16h80v3.2h-80Zm0 0-12-3.1v3l12 3.1Z" opacity=".3"/><path fill="#2f6a4c" d="m95 147-10.2 6q-12 3.7-26.6-2.7l15.8-5.2Zm5-21-10.3 5q-10.6 3.2-23.7-3.6l16-4Zm5-20-10.4 5q-9.1 3-20.8-4l16.2-3.9Zm5-18-10.6 5q-7.6 2.9-17.7-4.2L98 85.2Zm10-24-15.7 13q-6.1 3-14.8-4L112 61.7Z"/><path fill="url(#zhenhai-tl)" d="M95 147h110l14 6q-5 4-26 4h-83.2q-21 0-25-4Zm5-21h100l14.2 5q-5 4-24 4h-77.5q-19 0-23-4Zm5-20h90l14.4 5q-5 4-22 4h-71.8q-17 0-21-4Zm5-18h80l14.6 5q-5 4-20 4h-66.2q-15 0-19-4Zm10-24h60l19.8 13q-5 4-18 4h-60.5q-13 0-17-4Z"/><path fill="none" stroke="#244f3a" stroke-linejoin="round" stroke-width="1.3" d="M219 153q-5 4-26 4h-83.2q-21 0-25-4-12 3.7-26.6-2.7m156-19.3q-5 4-24 4h-77.5q-19 0-23-4-10.6 3.2-23.7-3.6M209.4 111q-5 4-22 4h-71.8q-17 0-21-4-9.1 3-20.8-4m130.8-14q-5 4-20 4h-66.2q-15 0-19-4-7.6 2.9-17.7-4.2M199.8 77q-5 4-18 4h-60.5q-13 0-17-4-6.1 3-14.8-4"/><path fill="#2f6a4c" d="m120 64-8-2.3 4-11.3 4 1.6Z"/><path fill="#7d2a2b" d="m120 52-4-1.2-2 6.8 5 2.4Z"/><path fill="url(#zhenhai-tl)" d="m120 64-1-6 4-6.6h54l6 12.6Z"/><path fill="#2c5a44" d="M122 48.4h56v3.2h-56Z"/><path fill="#3e8e84" d="M123 49c-2-3.1-3.2-6.5-1.2-9.5 1.8-2.2 5.2-1.3 5.4 1.4-1.6-1.3-2.9-.5-2.8 1.3.3 2.3 2.4 4.1 4 6.8Zm54 0c2-3.1 3.2-6.5 1.2-9.5-1.8-2.2-5.2-1.3-5.4 1.4 1.6-1.3 2.9-.5 2.8 1.3-.3 2.3-2.4 4.1-4 6.8Z"/><path fill="#e0b85a" d="M147.8 46.4a2.2 2.2 0 1 0 4.4 0 2.2 2.2 0 1 0-4.4 0m-23.7-1.8a.9 1.2 0 1 0 1.8 0 .9 1.2 0 1 0-1.8 0m50 0a.9 1.2 0 1 0 1.8 0 .9 1.2 0 1 0-1.8 0"/><path fill="#b2887a" d="M80 178h140l4 6H54l6-6.5Z"/><path fill="#d4c7b0" d="m0 196 52-12h178l6 12Z"/><path fill="#a8837a" d="M0 196h236v14H0Z"/><path fill="#8e6c64" d="M8 196h.8v14H8Zm12 0h.8v14H20Zm12 0h.8v14H32Zm12 0h.8v14H44Zm12 0h.8v14H56Zm12 0h.8v14H68Zm12 0h.8v14H80Zm12 0h.8v14H92Zm12 0h.8v14h-.8Zm12 0h.8v14h-.8Zm12 0h.8v14h-.8Zm12 0h.8v14h-.8Zm12 0h.8v14h-.8Zm12 0h.8v14h-.8Zm12 0h.8v14h-.8Zm12 0h.8v14h-.8Zm12 0h.8v14h-.8Zm12 0h.8v14h-.8Zm12 0h.8v14h-.8ZM0 202.6h236v.8H0Z"/><path fill="#3c3a38" d="m30 190 9-2.4v2.4l-9 1.6Zm1.2 1.6a1.8 1.8 0 1 0 3.6 0 1.8 1.8 0 1 0-3.6 0M48 190l9-2.4v2.4l-9 1.6Zm1.2 1.6a1.8 1.8 0 1 0 3.6 0 1.8 1.8 0 1 0-3.6 0M66 190l9-2.4v2.4l-9 1.6Zm1.2 1.6a1.8 1.8 0 1 0 3.6 0 1.8 1.8 0 1 0-3.6 0"/><path fill="#4a4a55" d="M102.9 182.1a1.1 1.1 0 1 0 2.1 0 1.1 1.1 0 1 0-2.1 0m2.5 1.4q-1.4-.7-2.8 0l-.2 3.4h.6l.1 4.1h.7l.2-3.4.2 3.4h.7l.1-4.1h.6Zm-2.5.4-1.9-.8-.2.5 1.8 1Zm-2.8-1.5h1v1.5h-1Zm10.9-.9a1 1.1 0 1 0 2 0 1 1.1 0 1 0-2 0m-.3 1.3q1.3-.7 2.6 0l.3 3.3h-.6l-.1 3.9h-.7l-.2-3.3-.2 3.3h-.7l-.1-3.9h-.6ZM199 180a1 1 0 1 0 1.9 0 1 1 0 1 0-1.9 0m2.2 1.2q-1.2-.6-2.4 0l-.1 3.1.5.1-1 3.6h.7l1.1-2.8 1.1 2.8h.7l-1-3.6.5-.1ZM83 183.3a1 1.1 0 1 0 2.1 0 1 1.1 0 1 0-2.1 0m-.3 1.4q1.3-.8 2.6 0l.2 3.3-.6.1L86 192h-.8l-1.2-3.1-1.2 3.1H82l1.1-3.9-.6-.1Z"/><g stroke-linecap="round"><path stroke="#6c957c" stroke-width="17.6" d="M293.2 315.1h0m-63.9 5h0m76.7 4.4h0m-71.9-9.2h0m92.8 2.8h0m3-11.4h0m-68.2-1.8h0m37.6 31.5h0m11.8-5.8h0m-29-1.1h0m-39.5-17.6h0m80.2 16.8h0M287.4 304h0m-21.7 4.8h0m2.1 23.2h0m-11.5 3h0m25.1-15.3h0m-49.7-2.6h0m80.3-11.8h0m-2.6 30h0m-69.3-13.8h0m57.8 14.8h0" transform="scale(1 .6)"/><path stroke="#82aa8e" stroke-width="16" d="M295.6 309.9h0m12.8 9.5h0m20.9-6.4h0m-65.2-13.2h0m49.4 25.7h0M245 306.8h0m44.8-7.9h0m-19.6 27.9h0m13.6-12.3h0m30.6-14.3h0m-71.9 16.2h0" transform="scale(1 .6)"/><path stroke="#82aa8e" stroke-width="12" d="M231.7 314.9h0m4.8-4.7h0m95.8-8.6h0m-30.6 29.6h0m-17.2-6.8h0m40.7-.8h0m-57.1-20h0m-9.4 26.2h0m-24.6-17.9h0m77.7 18.2h0m-11.5 1h0" transform="scale(1 .6)"/><path stroke="#a8c9a6" stroke-width="7.2" d="M297.6 306.7h0m12.8 9.4h0m20.9-6.3h0m-15.8 12.4h0m-23.7-26.5h0m24.6 1.3h0" transform="scale(1 .6)"/></g><path fill="url(#zhenhai-m3)" d="M0 188h360v30H0z"/><g stroke-linecap="round"><path stroke="#355f48" stroke-width="24.2" d="M26.6 365.2h0m30.6-13.7h0m-8.2 3.6h0m4 35.4h0m-77.6-18.2h0M52.7 354h0m13.9 36.2h0M1 374.9h0m-27.2-11.1h0m88.4 10.1h0m14-22.7h0m-59.8 35.1h0m33.2-18.7h0m-25.5 24.2h0m24.1-43.7h0m31.5 14h0m152.2 6.3h0m2.5 4.3h0m-85.3 11.8h0m3.4 6h0m169.1-11.1h0m-23.5-9.6h0m6.7 6.8h0m-80.8-2h0m110.2-.1h0m-46.2-7.7h0m42.2 3.4h0m34.3 13.4h0m-186.6-8.4h0m96.7 22.4h0m-61.7-32h0m49.8-.1h0m-114.1 16.2h0m146.2-19h0m-58.7 24.7h0m75.1-12.4h0m-11.7 15h0m39.6-10.7h0" transform="scale(1 .6)"/><path stroke="#4c7c5c" stroke-width="22" d="M29.9 358.1h0M52.3 348h0m-73.6 17.2h0m91.2 17.9h0m-92.8-26.4h0m102.4-12.6h0m-26.6 16.4h0M51.5 341h0m183.7 20.3h0m-82.8 16.1h0m172.5-5.1h0m-16.8-2.8h0m29.4-2.1h0m-4-4.3h0m-152.3 5h0m35-9.6h0m-64.3 16.1h0m87.5 5.7h0m63.4 2.6h0" transform="scale(1 .6)"/><path stroke="#4c7c5c" stroke-width="16.5" d="M60.5 344.4h0m-4.2 39h0m-.3-36.5h0M4.3 367.8h0m61.2-1h0m-45.8 12.4h0m7.7 5.5h0M83 355h0m154.7 10.6h0m-81.9 17.8h0m145.6-20.7h0m-74.1 4.8h0m64-7.8h0m76.5 16.8h0m-89.9 14h0M266 358.4h0m32.1-2.8h0m16.4 12.3h0m27.9 4.3h0" transform="scale(1 .6)"/><path stroke="#78a77a" stroke-width="9.9" d="M237.9 356.9h0m89.8 11h0m-16.8-2.8h0m29.3-2.2h0m-4-4.2h0m-117.3-4.6h0m23.3 21.8h0m63.4 2.6h0" transform="scale(1 .6)"/></g><path fill="#2f3b33" d="M372 240c-12-50-16-90-26-130l-6 2c8 38 12 78 14 128Zm-22-90q-20-22-44-30l-2 4q24 10 42 34Z"/><g stroke-linecap="round"><path stroke="#264a3a" stroke-width="19.8" d="M340.2 134h0m6.8-8.6h0m10.3 13.4h0m-22 32.6h0m-4.7-37.4h0m6.4 74.8h0m3.6-.4h0m24.1-38.5h0m-24.9-.7h0m8.1.5h0m-23.3 17.7h0m28.6-60.2h0m-1.4 33.9h0m-14.3 17.8h0m-29.7-3.3h0m21.8 26.7h0m-36-2.5h0m15.9-5.1h0m-4.2-.3h0m2.6-5.4h0m-2.2-5.8h0" transform="scale(1 .6)"/><path stroke="#3b6a50" stroke-width="18" d="M342.9 128.2h0M360 133h0m-26.7-4.8h0m10 74.3h0m-.8-39.1h0m-15.2 18.2h0m27.2-26.3h0m-44 14.5h0M296.3 194h0m11.7-5.4h0m.4-11.2h0" transform="scale(1 .6)"/><path stroke="#3b6a50" stroke-width="13.5" d="M349.7 119.6h0m-11.7 46h0m1.7 37.4h0m27.7-38.9h0m-16.8-.2h0m5.3-42.5h0m-15.7 51.7h0m-7.9 23.4h0m-20.1-7.6h0m-1.6-5.7h0" transform="scale(1 .6)"/><path stroke="#6f9e72" stroke-width="8.1" d="M362.2 129.3h0" transform="scale(1 .6)"/></g><path fill="url(#zhenhai-m4)" d="M0 206h360v34H0z"/><path fill="url(#zhenhai-vig)" d="M0 0h360v240H0z"/><path d="M0 0h360v240H0z" filter="url(#zhenhai-gr)" opacity=".2" style="mix-blend-mode:overlay"/></svg>